<svg xmlns="http://www.w3.org/2000/svg" xmlns:xlink="http://www.w3.org/1999/xlink" width="200" zoomAndPan="magnify" viewBox="0 0 150 149.999998" height="200" preserveAspectRatio="xMidYMid meet" version="1.0"><defs><clipPath id="ad0978510d"><path d="M 7.453125 15 L 83.203125 15 L 83.203125 125.25 L 7.453125 125.25 Z M 7.453125 15 " clip-rule="nonzero"/></clipPath><clipPath id="13c98d3353"><path d="M 109 15.003906 L 118 15.003906 L 118 17 L 109 17 Z M 109 15.003906 " clip-rule="nonzero"/></clipPath><clipPath id="9fc430cc7b"><path d="M 86.761719 16 L 139.261719 16 L 139.261719 121.496094 L 86.761719 121.496094 Z M 86.761719 16 " clip-rule="nonzero"/></clipPath></defs><rect x="-15" width="180" fill="#ffffff" y="-15" height="179.999997" fill-opacity="1"/><rect x="-15" width="180" fill="#ffffff" y="-15" height="179.999997" fill-opacity="1"/><rect x="-15" width="180" fill="#ffffff" y="-15" height="179.999997" fill-opacity="1"/><g clip-path="url(#ad0978510d)"><path fill="#000000" d="M 82.871094 121.269531 C 82.179688 120.242188 81.355469 119.339844 80.402344 118.558594 C 79.28125 117.644531 78.226562 116.65625 77.238281 115.597656 C 76.109375 114.367188 74.988281 113.128906 73.929688 111.828125 C 72.871094 110.527344 71.917969 109.191406 70.917969 107.871094 C 70.457031 107.265625 70.003906 106.648438 69.539062 106.046875 C 68.964844 105.308594 68.363281 104.59375 67.808594 103.847656 C 67.160156 102.976562 66.535156 102.085938 65.929688 101.191406 C 65.328125 100.296875 64.679688 99.417969 64.128906 98.476562 C 63.472656 97.34375 62.878906 96.167969 62.3125 94.980469 C 61.53125 93.328125 60.792969 91.65625 60.070312 89.976562 C 59.785156 89.332031 59.582031 88.65625 59.347656 87.992188 C 58.871094 86.679688 58.371094 85.378906 57.929688 84.058594 C 57.636719 83.183594 57.425781 82.285156 57.164062 81.402344 C 56.996094 80.839844 56.773438 80.292969 56.609375 79.726562 C 56.355469 78.855469 56.125 77.976562 55.890625 77.097656 C 55.65625 76.214844 55.425781 75.3125 55.199219 74.425781 C 55.003906 73.671875 54.8125 72.914062 54.621094 72.160156 C 54.503906 71.691406 54.375 71.21875 54.28125 70.75 C 54.167969 70.175781 54.097656 69.59375 53.988281 69.019531 C 53.851562 68.277344 53.675781 67.542969 53.546875 66.820312 C 53.296875 65.367188 53.023438 63.917969 52.855469 62.457031 C 52.761719 61.625 52.542969 60.804688 52.785156 59.921875 C 53.117188 58.667969 53.371094 57.402344 53.546875 56.117188 C 53.695312 55.128906 53.773438 54.136719 53.789062 53.136719 C 53.789062 52.355469 53.660156 51.566406 53.628906 50.785156 C 53.585938 49.675781 53.644531 48.5625 53.375 47.472656 C 53.199219 46.753906 53.082031 46.023438 52.898438 45.308594 C 52.714844 44.597656 52.480469 43.910156 52.273438 43.214844 C 52.183594 42.917969 52.121094 42.617188 52.042969 42.324219 C 51.726562 41.125 51.433594 39.925781 51.101562 38.734375 C 50.886719 37.957031 50.621094 37.191406 50.382812 36.421875 C 50.191406 35.792969 50.027344 35.164062 49.824219 34.554688 C 49.425781 33.339844 49.242188 32.121094 49.613281 30.867188 C 49.714844 30.527344 49.816406 30.183594 49.925781 29.847656 C 50.238281 28.992188 50.519531 28.128906 50.863281 27.289062 C 51.175781 26.503906 51.566406 25.746094 51.921875 24.976562 C 52.277344 24.210938 52.621094 23.46875 52.976562 22.722656 C 53.738281 21.191406 54.300781 19.585938 54.65625 17.914062 C 54.75 17.332031 54.78125 16.75 54.75 16.164062 C 54.75 15.757812 54.4375 15.375 54.152344 15.398438 C 53.480469 15.425781 52.8125 15.5 52.152344 15.613281 C 51.160156 15.820312 50.179688 16.089844 49.210938 16.382812 C 48.039062 16.734375 46.871094 17.105469 45.730469 17.542969 C 45.570312 17.625 45.398438 17.652344 45.21875 17.628906 C 45.039062 17.601562 44.878906 17.527344 44.746094 17.402344 C 43.953125 16.773438 43.089844 16.257812 42.15625 15.859375 C 41.164062 15.429688 40.175781 15.023438 39.074219 15 C 38.257812 14.996094 37.445312 15.050781 36.632812 15.167969 C 36.4375 15.1875 36.261719 15.261719 36.109375 15.386719 C 35.957031 15.511719 35.851562 15.671875 35.792969 15.859375 C 35.753906 15.953125 35.738281 16.058594 35.691406 16.148438 C 35.035156 17.515625 34.898438 18.9375 35.273438 20.40625 C 35.480469 21.246094 35.839844 22.015625 36.351562 22.710938 C 37.207031 23.917969 38.1875 25.050781 38.539062 26.546875 C 38.757812 27.316406 38.925781 28.09375 39.050781 28.886719 C 39.191406 30.371094 39.105469 31.84375 38.789062 33.304688 C 38.542969 34.554688 38.222656 35.789062 37.828125 37 C 37.402344 38.230469 36.792969 39.390625 36.285156 40.59375 C 35.878906 41.539062 35.492188 42.507812 35.132812 43.476562 C 34.707031 44.613281 34.285156 45.753906 33.925781 46.914062 C 33.613281 47.988281 33.324219 49.082031 33.082031 50.175781 C 32.90625 50.980469 32.8125 51.796875 32.699219 52.605469 C 32.601562 53.328125 32.488281 54.050781 32.449219 54.777344 C 32.386719 55.914062 32.386719 57.054688 32.355469 58.1875 C 32.320312 59.257812 32.34375 60.328125 32.429688 61.398438 C 32.539062 62.734375 32.636719 64.070312 32.640625 65.410156 C 32.640625 67.011719 32.585938 68.621094 32.5 70.222656 C 32.445312 71.355469 32.304688 72.488281 32.1875 73.621094 C 32.132812 74.234375 32.097656 74.84375 32.007812 75.449219 C 31.9375 76.207031 31.796875 76.953125 31.589844 77.6875 C 31.203125 78.804688 30.695312 79.886719 30.226562 80.96875 C 30.007812 81.472656 29.757812 81.96875 29.523438 82.464844 C 29.085938 83.40625 28.664062 84.347656 28.207031 85.273438 C 27.363281 86.96875 26.492188 88.675781 25.644531 90.382812 C 25.167969 91.34375 24.738281 92.332031 24.273438 93.296875 C 23.851562 94.167969 23.398438 95.027344 22.972656 95.894531 C 22.710938 96.425781 22.496094 96.972656 22.234375 97.5 C 21.851562 98.273438 21.445312 99.042969 21.046875 99.808594 C 20.535156 100.796875 20.027344 101.785156 19.511719 102.769531 C 19.214844 103.332031 18.882812 103.878906 18.609375 104.449219 C 18.101562 105.460938 17.632812 106.503906 17.105469 107.507812 C 16.523438 108.617188 15.902344 109.707031 15.285156 110.796875 C 14.757812 111.738281 14.230469 112.660156 13.671875 113.574219 C 12.640625 115.28125 11.613281 116.992188 10.542969 118.664062 C 9.917969 119.609375 9.207031 120.523438 8.527344 121.445312 C 8.214844 121.894531 7.855469 122.332031 7.496094 122.804688 C 7.578125 122.847656 7.664062 122.882812 7.753906 122.910156 C 8.183594 122.972656 8.609375 123.042969 9.042969 123.074219 C 9.78125 123.128906 10.519531 123.199219 11.257812 123.179688 C 11.898438 123.136719 12.535156 123.058594 13.167969 122.941406 C 14.542969 122.746094 15.914062 122.539062 17.285156 122.332031 C 17.535156 122.300781 17.78125 122.257812 18.027344 122.199219 C 18.945312 121.984375 19.875 121.863281 20.816406 121.835938 C 20.855469 121.839844 20.894531 121.847656 20.925781 121.867188 C 21.527344 122.121094 22.132812 122.355469 22.722656 122.636719 C 24.183594 123.328125 25.765625 123.5 27.34375 123.578125 C 28.527344 123.632812 29.726562 123.484375 30.921875 123.4375 C 31.171875 123.394531 31.417969 123.417969 31.660156 123.503906 C 32.691406 124.117188 33.785156 124.582031 34.9375 124.902344 C 35.757812 125.136719 36.589844 125.246094 37.441406 125.230469 C 38.457031 125.179688 39.46875 125.101562 40.476562 124.988281 C 40.804688 124.984375 41.09375 124.878906 41.351562 124.675781 C 41.636719 124.359375 41.945312 124.398438 42.269531 124.421875 C 43.730469 124.535156 45.1875 124.691406 46.648438 124.777344 C 47.652344 124.832031 48.660156 124.808594 49.667969 124.777344 C 50.035156 124.753906 50.394531 124.695312 50.753906 124.597656 C 50.90625 124.578125 51.03125 124.507812 51.132812 124.390625 C 51.191406 124.292969 51.132812 124.117188 51.113281 123.972656 C 52.246094 124.121094 53.378906 124.265625 54.515625 124.421875 C 56.558594 124.703125 58.582031 124.792969 60.574219 124.042969 C 60.886719 123.925781 60.980469 123.78125 60.886719 123.464844 C 60.855469 123.355469 60.808594 123.246094 60.761719 123.097656 C 60.886719 123.097656 60.984375 123.097656 61.074219 123.121094 C 61.511719 123.1875 61.949219 123.265625 62.390625 123.324219 C 63.347656 123.445312 64.304688 123.585938 65.265625 123.679688 C 66.398438 123.785156 67.527344 123.832031 68.5625 123.207031 C 68.707031 123.125 68.859375 123.089844 69.023438 123.101562 C 70.160156 123.203125 71.292969 123.339844 72.429688 123.433594 C 73.257812 123.5 74.085938 123.507812 74.910156 123.5625 C 75.363281 123.59375 75.8125 123.683594 76.265625 123.703125 C 77.050781 123.746094 77.136719 123.652344 77.207031 122.894531 C 78.078125 122.863281 78.953125 122.863281 79.820312 122.78125 C 80.757812 122.695312 81.726562 122.621094 82.59375 122.15625 C 83.101562 121.898438 83.164062 121.71875 82.871094 121.269531 Z M 82.871094 121.269531 " fill-opacity="1" fill-rule="nonzero"/><path fill="#000000" d="M 77.253906 122.890625 C 77.171875 123.648438 77.082031 123.742188 76.3125 123.699219 C 75.859375 123.679688 75.410156 123.589844 74.957031 123.558594 C 74.132812 123.503906 73.304688 123.496094 72.476562 123.429688 C 71.339844 123.335938 70.207031 123.199219 69.074219 123.101562 C 68.90625 123.089844 68.753906 123.121094 68.609375 123.203125 C 67.574219 123.832031 66.445312 123.78125 65.3125 123.675781 C 64.351562 123.582031 63.394531 123.441406 62.4375 123.320312 C 61.996094 123.261719 61.558594 123.183594 61.121094 123.121094 C 61.023438 123.121094 60.925781 123.121094 60.808594 123.09375 C 60.855469 123.246094 60.902344 123.351562 60.933594 123.460938 C 61.015625 123.777344 60.914062 123.921875 60.621094 124.039062 C 58.636719 124.792969 56.605469 124.699219 54.5625 124.421875 C 53.429688 124.261719 52.292969 124.105469 51.160156 123.972656 C 51.160156 124.113281 51.242188 124.285156 51.179688 124.390625 C 51.078125 124.503906 50.953125 124.574219 50.800781 124.597656 C 50.441406 124.691406 50.082031 124.75 49.714844 124.773438 C 48.707031 124.792969 47.699219 124.8125 46.695312 124.773438 C 45.230469 124.6875 43.773438 124.53125 42.316406 124.421875 C 42 124.394531 41.6875 124.34375 41.398438 124.671875 C 41.140625 124.875 40.851562 124.980469 40.523438 124.984375 C 39.515625 125.097656 38.503906 125.175781 37.488281 125.226562 C 36.636719 125.242188 35.804688 125.132812 34.984375 124.898438 C 33.832031 124.578125 32.738281 124.113281 31.707031 123.503906 C 31.464844 123.414062 31.21875 123.390625 30.96875 123.433594 C 29.773438 123.480469 28.578125 123.628906 27.390625 123.574219 C 25.824219 123.5 24.234375 123.328125 22.769531 122.632812 C 22.179688 122.351562 21.574219 122.121094 20.972656 121.863281 C 20.941406 121.847656 20.902344 121.835938 20.863281 121.832031 C 19.921875 121.863281 18.992188 121.980469 18.074219 122.195312 C 17.828125 122.253906 17.582031 122.300781 17.332031 122.328125 C 15.960938 122.535156 14.589844 122.742188 13.214844 122.941406 C 12.582031 123.054688 11.945312 123.132812 11.304688 123.175781 C 10.566406 123.195312 9.828125 123.125 9.089844 123.070312 C 8.65625 123.039062 8.230469 122.96875 7.800781 122.90625 C 7.695312 122.882812 7.589844 122.847656 7.492188 122.796875 C 7.851562 122.324219 8.195312 121.886719 8.523438 121.4375 C 9.203125 120.515625 9.921875 119.617188 10.539062 118.660156 C 11.621094 116.984375 12.648438 115.273438 13.671875 113.566406 C 14.226562 112.652344 14.753906 111.71875 15.28125 110.789062 C 15.90625 109.699219 16.535156 108.613281 17.101562 107.503906 C 17.628906 106.496094 18.097656 105.457031 18.605469 104.441406 C 18.890625 103.871094 19.210938 103.324219 19.507812 102.761719 C 20.023438 101.78125 20.535156 100.789062 21.042969 99.800781 C 21.445312 99.035156 21.847656 98.269531 22.234375 97.492188 C 22.492188 96.964844 22.707031 96.417969 22.96875 95.890625 C 23.394531 95.019531 23.847656 94.160156 24.269531 93.289062 C 24.734375 92.324219 25.164062 91.339844 25.640625 90.378906 C 26.484375 88.671875 27.355469 86.976562 28.199219 85.265625 C 28.65625 84.339844 29.078125 83.382812 29.519531 82.457031 C 29.753906 81.960938 30 81.46875 30.21875 80.960938 C 30.6875 79.875 31.195312 78.800781 31.582031 77.679688 C 31.796875 76.949219 31.9375 76.207031 32.011719 75.453125 C 32.101562 74.847656 32.136719 74.234375 32.195312 73.625 C 32.296875 72.492188 32.433594 71.359375 32.507812 70.226562 C 32.589844 68.621094 32.65625 67.015625 32.648438 65.414062 C 32.648438 64.074219 32.542969 62.734375 32.433594 61.402344 C 32.351562 60.332031 32.328125 59.261719 32.363281 58.191406 C 32.394531 57.058594 32.394531 55.917969 32.457031 54.78125 C 32.496094 54.054688 32.605469 53.332031 32.707031 52.609375 C 32.820312 51.800781 32.914062 50.980469 33.089844 50.179688 C 33.328125 49.082031 33.601562 47.980469 33.929688 46.917969 C 34.289062 45.753906 34.714844 44.617188 35.140625 43.480469 C 35.5 42.507812 35.886719 41.550781 36.289062 40.597656 C 36.796875 39.394531 37.40625 38.230469 37.832031 37.003906 C 38.230469 35.789062 38.546875 34.558594 38.789062 33.304688 C 39.101562 31.84375 39.1875 30.371094 39.042969 28.886719 C 38.917969 28.09375 38.746094 27.316406 38.53125 26.546875 C 38.191406 25.050781 37.210938 23.917969 36.339844 22.710938 C 35.832031 22.015625 35.472656 21.246094 35.265625 20.40625 C 34.890625 18.9375 35.035156 17.519531 35.691406 16.152344 C 35.738281 16.0625 35.753906 15.957031 35.792969 15.863281 C 35.851562 15.675781 35.957031 15.515625 36.109375 15.390625 C 36.261719 15.265625 36.4375 15.191406 36.632812 15.171875 C 37.445312 15.054688 38.257812 15 39.074219 15.003906 C 40.175781 15.023438 41.164062 15.429688 42.160156 15.847656 C 43.089844 16.246094 43.953125 16.761719 44.75 17.390625 C 44.882812 17.515625 45.039062 17.589844 45.222656 17.617188 C 45.402344 17.640625 45.574219 17.613281 45.734375 17.53125 C 46.875 17.09375 48.042969 16.722656 49.210938 16.371094 C 50.183594 16.078125 51.160156 15.808594 52.152344 15.601562 C 52.816406 15.484375 53.484375 15.414062 54.15625 15.386719 C 54.433594 15.363281 54.75 15.746094 54.75 16.148438 C 54.777344 16.738281 54.746094 17.320312 54.65625 17.902344 C 54.296875 19.574219 53.734375 21.175781 52.972656 22.710938 C 52.617188 23.457031 52.265625 24.210938 51.917969 24.964844 C 51.570312 25.71875 51.183594 26.492188 50.863281 27.277344 C 50.515625 28.117188 50.234375 28.980469 49.921875 29.835938 C 49.800781 30.171875 49.699219 30.511719 49.609375 30.855469 C 49.242188 32.113281 49.421875 33.328125 49.820312 34.542969 C 50.023438 35.171875 50.1875 35.800781 50.378906 36.410156 C 50.617188 37.179688 50.882812 37.941406 51.097656 38.722656 C 51.429688 39.914062 51.726562 41.113281 52.039062 42.3125 C 52.117188 42.605469 52.183594 42.90625 52.269531 43.199219 C 52.472656 43.898438 52.710938 44.589844 52.894531 45.296875 C 53.082031 46.003906 53.207031 46.742188 53.371094 47.460938 C 53.640625 48.550781 53.585938 49.660156 53.625 50.773438 C 53.65625 51.558594 53.804688 52.34375 53.789062 53.125 C 53.773438 54.125 53.691406 55.117188 53.542969 56.105469 C 53.367188 57.386719 53.117188 58.65625 52.78125 59.90625 C 52.53125 60.792969 52.757812 61.613281 52.851562 62.445312 C 53.019531 63.90625 53.292969 65.355469 53.542969 66.804688 C 53.671875 67.546875 53.855469 68.28125 53.984375 69.007812 C 54.09375 69.582031 54.167969 70.164062 54.277344 70.738281 C 54.371094 71.210938 54.5 71.679688 54.617188 72.148438 C 54.808594 72.902344 55 73.65625 55.195312 74.410156 C 55.425781 75.300781 55.652344 76.195312 55.886719 77.082031 C 56.121094 77.972656 56.351562 78.84375 56.605469 79.714844 C 56.769531 80.28125 56.992188 80.828125 57.160156 81.390625 C 57.425781 82.273438 57.632812 83.171875 57.929688 84.042969 C 58.371094 85.363281 58.867188 86.667969 59.34375 87.980469 C 59.582031 88.640625 59.785156 89.320312 60.066406 89.964844 C 60.792969 91.644531 61.527344 93.316406 62.308594 94.96875 C 62.871094 96.15625 63.46875 97.328125 64.128906 98.464844 C 64.667969 99.40625 65.3125 100.285156 65.925781 101.179688 C 66.542969 102.070312 67.179688 102.964844 67.804688 103.835938 C 68.363281 104.582031 68.960938 105.300781 69.535156 106.035156 C 70 106.636719 70.457031 107.25 70.914062 107.859375 C 71.914062 109.179688 72.878906 110.53125 73.925781 111.816406 C 74.972656 113.097656 76.117188 114.347656 77.234375 115.585938 C 78.226562 116.648438 79.285156 117.640625 80.410156 118.558594 C 81.367188 119.339844 82.191406 120.242188 82.878906 121.269531 C 83.175781 121.71875 83.113281 121.898438 82.652344 122.148438 C 81.78125 122.621094 80.824219 122.691406 79.875 122.777344 C 79 122.863281 78.125 122.859375 77.253906 122.890625 Z M 51.449219 100.910156 C 51.53125 101.015625 51.597656 101.128906 51.652344 101.25 C 51.964844 102.246094 52.277344 103.261719 52.636719 104.246094 C 53.246094 105.886719 53.902344 107.511719 54.546875 109.140625 C 54.8125 109.820312 55.085938 110.496094 55.371094 111.167969 C 55.757812 112.109375 56.167969 113.019531 56.554688 113.953125 C 57.179688 115.449219 57.804688 116.945312 58.386719 118.457031 C 58.945312 119.886719 59.765625 121.167969 60.472656 122.511719 C 60.589844 122.75 60.777344 122.878906 61.042969 122.894531 C 61.585938 122.957031 62.128906 123.066406 62.671875 123.121094 C 63.785156 123.230469 64.902344 123.332031 66.019531 123.402344 C 66.703125 123.476562 67.367188 123.386719 68.003906 123.125 C 68.457031 122.917969 68.589844 122.777344 68.191406 122.222656 C 68.121094 122.132812 68.078125 122.027344 68.015625 121.925781 C 67.621094 121.296875 67.238281 120.632812 66.824219 120 C 66.269531 119.15625 65.660156 118.34375 65.121094 117.488281 C 64.007812 115.722656 62.914062 113.949219 61.832031 112.164062 C 61.234375 111.171875 60.6875 110.140625 60.109375 109.132812 C 59.847656 108.679688 59.570312 108.234375 59.304688 107.785156 C 59.214844 107.632812 59.140625 107.472656 59.058594 107.3125 C 59.183594 107.414062 59.296875 107.527344 59.394531 107.652344 C 59.648438 108.03125 59.882812 108.421875 60.125 108.808594 C 60.367188 109.191406 60.691406 109.652344 60.949219 110.089844 C 61.261719 110.640625 61.554688 111.21875 61.886719 111.765625 C 62.351562 112.539062 62.839844 113.300781 63.320312 114.070312 C 63.964844 115.109375 64.597656 116.15625 65.257812 117.183594 C 65.882812 118.148438 66.539062 119.09375 67.175781 120.054688 C 67.515625 120.5625 67.835938 121.089844 68.15625 121.609375 C 68.394531 122 68.617188 122.398438 68.839844 122.78125 C 69.398438 122.828125 69.96875 122.867188 70.535156 122.925781 C 71.511719 123.023438 72.480469 123.152344 73.457031 123.238281 C 74.433594 123.324219 75.398438 123.316406 76.367188 123.351562 C 76.472656 123.359375 76.578125 123.351562 76.679688 123.335938 C 76.886719 123.296875 76.972656 123.167969 76.863281 122.972656 C 76.691406 122.636719 76.496094 122.308594 76.285156 121.992188 C 75 120.226562 73.703125 118.464844 72.40625 116.707031 C 71.8125 115.914062 71.152344 115.15625 70.597656 114.339844 C 70.046875 113.527344 69.515625 112.570312 68.941406 111.710938 C 68.046875 110.371094 67.113281 109.054688 66.191406 107.730469 C 65.074219 106.117188 63.933594 104.515625 62.832031 102.890625 C 61.722656 101.304688 60.753906 99.640625 59.921875 97.890625 C 59.449219 96.859375 58.984375 95.816406 58.574219 94.75 C 58.113281 93.535156 57.714844 92.292969 57.300781 91.066406 C 56.984375 90.164062 56.707031 89.257812 56.417969 88.355469 C 56.417969 88.335938 56.417969 88.308594 56.417969 88.273438 L 56.625 88.226562 C 56.882812 89.09375 57.113281 89.945312 57.390625 90.78125 C 57.765625 91.9375 58.164062 93.082031 58.585938 94.222656 C 58.863281 94.988281 59.179688 95.738281 59.5 96.488281 C 59.71875 97.050781 59.96875 97.59375 60.242188 98.128906 C 60.710938 98.976562 61.226562 99.800781 61.726562 100.640625 C 62.226562 101.484375 62.753906 102.410156 63.328125 103.253906 C 64.609375 105.140625 65.941406 106.953125 67.226562 108.816406 C 68.246094 110.300781 69.230469 111.804688 70.226562 113.300781 C 70.5625 113.804688 70.851562 114.324219 71.222656 114.804688 C 71.628906 115.359375 72.097656 115.867188 72.511719 116.414062 C 72.996094 117.042969 73.449219 117.722656 73.917969 118.367188 C 74.875 119.664062 75.855469 120.949219 76.796875 122.257812 C 76.988281 122.546875 77.253906 122.675781 77.601562 122.644531 C 78.863281 122.617188 80.113281 122.488281 81.355469 122.253906 C 81.859375 122.195312 82.3125 122.015625 82.71875 121.707031 C 82.667969 121.566406 82.601562 121.429688 82.519531 121.300781 C 82.027344 120.707031 81.554688 120.082031 81.003906 119.535156 C 79.953125 118.488281 78.851562 117.503906 77.789062 116.476562 C 77.257812 115.964844 76.734375 115.449219 76.25 114.90625 C 75.117188 113.59375 73.992188 112.269531 72.890625 110.925781 C 72.265625 110.144531 71.667969 109.320312 71.058594 108.515625 C 70.5625 107.855469 70.078125 107.1875 69.574219 106.535156 C 69.070312 105.878906 68.539062 105.277344 68.058594 104.617188 C 67.214844 103.472656 66.414062 102.304688 65.582031 101.160156 C 64.476562 99.625 63.496094 98.007812 62.648438 96.3125 C 62.042969 95.132812 61.464844 93.933594 60.921875 92.726562 C 60.414062 91.582031 59.960938 90.414062 59.496094 89.269531 C 59.203125 88.53125 58.953125 87.777344 58.671875 87.035156 C 58.460938 86.476562 58.195312 85.941406 58.011719 85.371094 C 57.773438 84.621094 57.597656 83.851562 57.386719 83.09375 C 56.90625 81.464844 56.398438 79.84375 55.933594 78.210938 C 55.472656 76.582031 55.042969 74.996094 54.644531 73.375 C 54.273438 71.871094 53.949219 70.351562 53.632812 68.832031 C 53.433594 67.890625 53.28125 66.949219 53.117188 66.019531 C 52.957031 65.09375 52.804688 64.199219 52.660156 63.289062 C 52.59375 62.886719 52.511719 62.488281 52.421875 62.011719 L 51.527344 64.644531 C 51.308594 65.273438 51.105469 65.933594 50.867188 66.566406 C 50.386719 67.863281 49.855469 69.140625 49.394531 70.441406 C 49.082031 71.347656 48.832031 72.28125 48.53125 73.195312 C 48.1875 74.265625 47.8125 75.324219 47.464844 76.386719 C 47.113281 77.453125 46.804688 78.488281 46.449219 79.53125 C 46.164062 80.363281 45.84375 81.183594 45.511719 82.003906 C 45.175781 82.824219 44.832031 83.714844 44.457031 84.554688 C 44.03125 85.523438 43.621094 86.472656 43.75 87.582031 C 43.765625 88.105469 43.726562 88.621094 43.636719 89.136719 C 43.527344 90.375 43.414062 91.613281 43.324219 92.855469 C 43.21875 94.285156 43.140625 95.714844 43.054688 97.144531 C 43 98.042969 42.960938 98.9375 42.898438 99.835938 C 42.84375 100.644531 42.742188 101.457031 42.710938 102.269531 C 42.664062 103.429688 42.679688 104.59375 42.632812 105.753906 C 42.554688 107.933594 42.449219 110.109375 42.363281 112.292969 C 42.316406 113.4375 42.308594 114.589844 42.261719 115.75 C 42.199219 117.195312 42.125 118.632812 42.15625 120.085938 C 42.203125 121.359375 42.089844 122.617188 41.808594 123.859375 C 41.796875 123.949219 41.796875 124.039062 41.808594 124.132812 C 42.347656 124.195312 42.863281 124.285156 43.371094 124.324219 C 44.582031 124.417969 45.789062 124.484375 46.996094 124.566406 C 47.203125 124.566406 47.40625 124.605469 47.621094 124.597656 C 48.332031 124.574219 49.046875 124.550781 49.757812 124.5 C 50.113281 124.449219 50.464844 124.382812 50.8125 124.292969 C 50.5 123.726562 50.265625 123.246094 50.007812 122.765625 C 49.851562 122.535156 49.707031 122.292969 49.578125 122.042969 C 49.171875 121.039062 48.738281 120.035156 48.40625 119.003906 C 48.015625 117.777344 47.675781 116.527344 47.382812 115.273438 C 47.199219 114.425781 47.066406 113.570312 46.984375 112.710938 C 46.785156 111.042969 46.585938 109.382812 46.449219 107.714844 C 46.34375 106.441406 46.316406 105.15625 46.285156 103.882812 C 46.253906 102.707031 46.285156 101.535156 46.257812 100.359375 C 46.257812 99.460938 46.21875 98.558594 46.21875 97.65625 C 46.21875 96.863281 46.25 96.085938 46.25 95.285156 C 46.25 94.28125 46.1875 93.277344 46.210938 92.277344 C 46.230469 91.488281 46.332031 90.703125 46.390625 89.921875 C 46.390625 89.746094 46.363281 89.566406 46.390625 89.386719 C 46.4375 88.367188 46.488281 87.339844 46.546875 86.320312 C 46.546875 86.265625 46.609375 86.214844 46.691406 86.085938 C 46.691406 86.273438 46.691406 86.359375 46.691406 86.449219 C 46.640625 87.285156 46.585938 88.125 46.535156 88.964844 C 46.535156 89.167969 46.511719 89.367188 46.515625 89.574219 C 46.515625 90.203125 46.550781 90.8125 46.550781 91.433594 C 46.550781 92.480469 46.535156 93.527344 46.523438 94.574219 C 46.523438 95.878906 46.488281 97.1875 46.492188 98.496094 C 46.496094 99.800781 46.523438 101.074219 46.539062 102.367188 C 46.539062 103.351562 46.539062 104.332031 46.582031 105.3125 C 46.636719 106.601562 46.71875 107.886719 46.816406 109.171875 C 46.898438 110.1875 46.96875 111.210938 47.148438 112.210938 C 47.429688 113.746094 47.597656 115.300781 48.089844 116.792969 C 48.382812 117.691406 48.578125 118.621094 48.875 119.515625 C 49.085938 120.144531 49.386719 120.773438 49.644531 121.402344 C 49.734375 121.675781 49.835938 121.945312 49.957031 122.203125 C 50.21875 122.683594 50.53125 123.148438 50.800781 123.617188 C 50.882812 123.789062 51.019531 123.878906 51.210938 123.878906 C 52.464844 124.007812 53.714844 124.164062 54.984375 124.296875 C 56.519531 124.507812 58.039062 124.445312 59.550781 124.113281 C 59.933594 124.015625 60.351562 123.972656 60.660156 123.675781 C 60.542969 123.328125 60.40625 122.992188 60.25 122.660156 C 59.800781 121.835938 59.28125 121.050781 58.878906 120.207031 C 58.285156 118.953125 57.757812 117.667969 57.222656 116.390625 C 56.890625 115.59375 56.617188 114.773438 56.28125 113.96875 C 55.738281 112.652344 55.164062 111.339844 54.613281 110.019531 C 54.257812 109.160156 53.917969 108.289062 53.574219 107.421875 C 53.230469 106.554688 52.851562 105.621094 52.507812 104.714844 C 52.308594 104.203125 52.195312 103.65625 51.964844 103.144531 C 51.648438 102.453125 51.484375 101.726562 51.472656 100.964844 Z M 42.960938 29.609375 C 43.046875 29.597656 43.136719 29.597656 43.226562 29.609375 C 44.125 29.855469 45.019531 30.15625 45.933594 30.347656 C 46.992188 30.5625 48.078125 30.679688 49.148438 30.839844 L 49.179688 30.734375 C 48.636719 30.109375 47.839844 29.835938 47.195312 29.351562 C 46.550781 28.863281 45.816406 28.4375 45.136719 27.96875 C 44.457031 27.496094 43.808594 27.023438 43.164062 26.515625 C 42.519531 26.007812 41.910156 25.488281 41.285156 24.96875 L 41.359375 24.867188 C 43.808594 26.988281 46.457031 28.8125 49.3125 30.335938 C 49.972656 28.660156 50.628906 26.988281 51.285156 25.332031 C 50.921875 24.875 50.535156 24.425781 50.195312 23.949219 C 49.855469 23.46875 49.648438 23.003906 49.320312 22.597656 C 48.636719 21.71875 47.917969 20.867188 47.203125 20.015625 C 46.832031 19.523438 46.425781 19.066406 45.984375 18.636719 C 45.425781 18.15625 44.828125 17.71875 44.203125 17.328125 C 43.414062 16.8125 42.597656 16.34375 41.75 15.921875 C 41.027344 15.519531 40.257812 15.269531 39.4375 15.171875 C 38.53125 15.082031 37.632812 15.128906 36.742188 15.3125 C 36.550781 15.367188 36.398438 15.472656 36.285156 15.628906 C 35.753906 16.496094 35.460938 17.441406 35.398438 18.457031 C 35.292969 19.988281 35.710938 21.359375 36.652344 22.566406 C 37.101562 23.171875 37.574219 23.773438 37.96875 24.429688 C 38.632812 25.59375 39.0625 26.84375 39.257812 28.175781 C 39.410156 29.15625 39.429688 30.136719 39.320312 31.121094 C 39.167969 33.398438 38.671875 35.601562 37.835938 37.722656 C 37.453125 38.644531 37.085938 39.570312 36.703125 40.492188 C 36.164062 41.792969 35.578125 43.074219 35.078125 44.386719 C 34.59375 45.601562 34.175781 46.839844 33.824219 48.101562 C 33.5 49.40625 33.246094 50.722656 33.058594 52.054688 C 32.738281 53.828125 32.589844 55.613281 32.605469 57.414062 C 32.683594 59.425781 32.71875 61.4375 32.824219 63.445312 C 32.917969 64.871094 32.933594 66.296875 32.875 67.722656 C 32.773438 69.449219 32.699219 71.179688 32.585938 72.898438 C 32.527344 73.789062 32.421875 74.679688 32.300781 75.566406 C 32.210938 76.25 32.082031 76.929688 31.914062 77.601562 C 31.578125 78.925781 30.953125 80.136719 30.398438 81.375 C 29.816406 82.667969 29.191406 83.945312 28.5625 85.21875 C 28.027344 86.308594 27.457031 87.386719 26.921875 88.472656 C 26.1875 89.9375 25.457031 91.421875 24.730469 92.917969 C 24.28125 93.832031 23.847656 94.75 23.398438 95.664062 C 22.816406 96.855469 22.230469 98.050781 21.632812 99.234375 C 21.035156 100.417969 20.378906 101.65625 19.753906 102.867188 C 19.195312 103.945312 18.632812 105.015625 18.078125 106.09375 C 17.699219 106.832031 17.292969 107.5625 16.957031 108.320312 C 16.324219 109.625 15.613281 110.878906 14.820312 112.089844 C 14.222656 113.070312 13.640625 114.058594 13.054688 115.046875 C 12.742188 115.550781 12.460938 116.058594 12.15625 116.5625 C 11.773438 117.191406 11.40625 117.84375 10.996094 118.449219 C 10.589844 119.054688 10.128906 119.707031 9.683594 120.316406 C 9.371094 120.753906 9.027344 121.1875 8.699219 121.621094 L 7.910156 122.644531 L 8.675781 122.761719 C 10.011719 122.953125 11.34375 122.941406 12.675781 122.734375 C 13.367188 122.625 14.058594 122.535156 14.75 122.417969 C 15.605469 122.28125 16.457031 122.148438 17.308594 121.992188 C 17.96875 121.875 18.617188 121.714844 19.277344 121.601562 C 19.621094 121.558594 19.96875 121.535156 20.3125 121.527344 C 20.160156 120.898438 20.378906 120.339844 20.582031 119.789062 C 20.878906 119.003906 21.238281 118.246094 21.570312 117.476562 C 22.054688 116.332031 22.507812 115.175781 23.035156 114.050781 C 23.523438 112.984375 24.089844 111.953125 24.597656 110.90625 C 25.410156 109.226562 26.199219 107.535156 27.007812 105.851562 C 27.78125 104.230469 28.558594 102.613281 29.347656 100.996094 C 29.972656 99.738281 30.597656 98.484375 31.203125 97.199219 C 31.679688 96.214844 32.144531 95.21875 32.617188 94.230469 C 33.300781 92.808594 34.003906 91.402344 34.679688 89.960938 C 35.21875 88.816406 35.722656 87.652344 36.265625 86.503906 C 36.839844 85.300781 37.453125 84.117188 38.050781 82.925781 C 38.648438 81.734375 39.230469 80.570312 39.824219 79.394531 C 40.507812 78.035156 41.195312 76.671875 41.886719 75.308594 C 42.445312 74.210938 43.019531 73.109375 43.574219 72.027344 C 43.988281 71.210938 44.398438 70.386719 44.789062 69.554688 C 45.066406 68.972656 45.296875 68.359375 45.574219 67.773438 C 46.269531 66.320312 46.992188 64.878906 47.6875 63.429688 C 48.1875 62.394531 48.683594 61.355469 49.148438 60.304688 C 49.792969 58.839844 50.398438 57.359375 51.023438 55.886719 C 51.242188 55.378906 51.476562 54.878906 51.710938 54.382812 C 51.753906 54.304688 51.871094 54.265625 51.949219 54.210938 C 51.980469 54.3125 51.992188 54.417969 51.988281 54.523438 C 51.957031 54.632812 51.914062 54.738281 51.855469 54.839844 C 50.953125 56.859375 50.054688 58.878906 49.140625 60.894531 C 48.59375 62.101562 48.023438 63.296875 47.453125 64.488281 C 47.292969 64.824219 47.078125 65.117188 46.921875 65.464844 C 46.464844 66.433594 46.027344 67.410156 45.574219 68.378906 C 45.160156 69.273438 44.742188 70.164062 44.324219 71.050781 C 44.15625 71.398438 43.984375 71.742188 43.8125 72.082031 C 43.496094 72.710938 43.136719 73.339844 42.820312 73.988281 C 42.097656 75.445312 41.398438 76.917969 40.664062 78.386719 C 40.109375 79.492188 39.5 80.585938 38.9375 81.679688 C 38.3125 82.921875 37.691406 84.167969 37.078125 85.425781 C 36.335938 86.957031 35.613281 88.5 34.886719 90.042969 C 34.640625 90.566406 34.414062 91.097656 34.164062 91.613281 C 33.910156 92.128906 33.660156 92.617188 33.417969 93.121094 C 32.953125 94.0625 32.5 95.027344 32.042969 95.980469 C 31.667969 96.757812 31.285156 97.535156 30.921875 98.3125 C 30.554688 99.09375 30.25 99.796875 29.894531 100.511719 C 29.046875 102.238281 28.179688 103.953125 27.335938 105.683594 C 26.777344 106.835938 26.246094 108.003906 25.695312 109.160156 C 25.359375 109.855469 25 110.542969 24.660156 111.242188 C 24.273438 112.035156 23.890625 112.8125 23.511719 113.625 C 23.054688 114.59375 22.574219 115.5625 22.160156 116.542969 C 21.746094 117.523438 21.382812 118.472656 20.972656 119.4375 C 20.726562 120.023438 20.480469 120.605469 20.582031 121.285156 C 22.195312 122.257812 23.9375 122.867188 25.804688 123.109375 C 27.683594 123.34375 29.511719 123.195312 31.316406 123.019531 C 31.425781 122.242188 31.511719 121.542969 31.628906 120.851562 C 31.746094 119.988281 31.90625 119.136719 32.109375 118.292969 C 32.605469 116.507812 33.175781 114.742188 33.707031 112.964844 C 34.09375 111.796875 34.40625 110.636719 34.761719 109.472656 C 35.222656 107.9375 35.667969 106.402344 36.179688 104.886719 C 36.824219 102.972656 37.496094 101.066406 38.222656 99.179688 C 38.980469 97.210938 39.824219 95.273438 40.609375 93.3125 C 41.015625 92.292969 41.355469 91.246094 41.761719 90.226562 C 42.191406 89.144531 42.621094 88.0625 43.121094 87.015625 C 43.480469 86.261719 43.695312 85.457031 44.0625 84.710938 C 44.566406 83.71875 44.925781 82.644531 45.335938 81.605469 C 45.605469 80.917969 45.863281 80.222656 46.117188 79.523438 C 46.28125 79.082031 46.429688 78.636719 46.578125 78.1875 C 46.867188 77.261719 47.140625 76.332031 47.433594 75.410156 C 47.675781 74.667969 47.941406 73.9375 48.1875 73.210938 C 48.617188 71.917969 49.03125 70.621094 49.464844 69.328125 C 49.628906 68.847656 49.839844 68.386719 50.015625 67.898438 C 50.484375 66.644531 50.984375 65.367188 51.402344 64.078125 C 51.757812 63 52.046875 61.898438 52.308594 60.789062 C 52.546875 59.78125 52.667969 58.742188 52.910156 57.734375 C 53.171875 56.699219 53.355469 55.652344 53.453125 54.589844 C 53.539062 53.539062 53.511719 52.492188 53.371094 51.445312 C 53.320312 51.085938 53.320312 50.714844 53.304688 50.347656 C 53.3125 49.699219 53.285156 49.050781 53.222656 48.402344 C 53.101562 47.511719 52.894531 46.632812 52.714844 45.753906 C 52.667969 45.585938 52.609375 45.421875 52.546875 45.257812 C 52.214844 45.949219 51.917969 46.578125 51.605469 47.203125 C 51.230469 47.957031 50.808594 48.6875 50.464844 49.453125 C 49.886719 50.753906 49.367188 52.074219 48.800781 53.375 C 48.378906 54.347656 47.921875 55.304688 47.488281 56.269531 C 47.195312 56.898438 46.929688 57.5625 46.628906 58.199219 C 46.15625 59.1875 45.664062 60.164062 45.183594 61.144531 C 44.589844 62.375 44.007812 63.609375 43.414062 64.839844 C 43.15625 65.375 42.890625 65.90625 42.625 66.441406 C 42.4375 66.820312 42.257812 67.199219 42.050781 67.5625 C 41.601562 68.359375 41.113281 69.136719 40.679688 69.941406 C 40.25 70.75 39.832031 71.582031 39.429688 72.40625 C 38.992188 73.285156 38.5625 74.167969 38.128906 75.050781 C 37.390625 76.566406 36.652344 78.082031 35.894531 79.589844 C 35.730469 79.871094 35.546875 80.140625 35.34375 80.398438 C 35.375 80.277344 35.414062 80.15625 35.460938 80.039062 C 35.675781 79.625 35.910156 79.21875 36.121094 78.800781 C 36.746094 77.589844 37.375 76.382812 37.953125 75.160156 C 38.460938 74.117188 38.890625 73.042969 39.421875 72.015625 C 40.148438 70.566406 40.925781 69.140625 41.679688 67.703125 C 42.191406 66.726562 42.710938 65.757812 43.195312 64.773438 C 43.820312 63.515625 44.375 62.257812 44.972656 61 C 45.375 60.148438 45.816406 59.3125 46.222656 58.453125 C 46.914062 56.957031 47.582031 55.453125 48.25 53.953125 C 48.691406 52.957031 49.132812 51.964844 49.554688 50.96875 C 49.890625 50.183594 50.183594 49.371094 50.539062 48.601562 C 51.066406 47.488281 51.648438 46.398438 52.214844 45.300781 C 52.289062 45.195312 52.367188 45.101562 52.460938 45.015625 C 52.199219 43.941406 51.953125 42.8125 51.648438 41.699219 C 51.375 40.5625 51.039062 39.449219 50.632812 38.355469 C 50.40625 37.714844 50.210938 37.058594 50.054688 36.394531 C 49.867188 35.746094 49.714844 35.089844 49.46875 34.464844 C 49.214844 33.796875 49.074219 33.105469 49.042969 32.390625 C 49.042969 31.90625 49.074219 31.421875 49.140625 30.945312 C 48.175781 31.472656 47.210938 32.003906 46.234375 32.515625 C 46.050781 32.589844 45.859375 32.648438 45.667969 32.6875 C 45.703125 32.644531 45.742188 32.605469 45.789062 32.570312 C 46.414062 32.210938 47.078125 31.855469 47.714844 31.488281 C 47.949219 31.355469 48.164062 31.171875 48.402344 31.027344 C 48.332031 30.976562 48.3125 30.953125 48.292969 30.945312 C 47.417969 30.765625 46.546875 30.605469 45.675781 30.40625 C 45.050781 30.261719 44.425781 30.09375 43.796875 29.898438 C 43.515625 29.8125 43.246094 29.6875 42.96875 29.582031 Z M 43.621094 86.65625 L 43.539062 86.632812 C 43.316406 87.195312 43.101562 87.765625 42.867188 88.324219 C 42.40625 89.445312 41.929688 90.554688 41.464844 91.679688 C 40.804688 93.3125 40.167969 94.957031 39.511719 96.589844 C 39.019531 97.8125 38.488281 99.019531 38.019531 100.25 C 37.554688 101.476562 37.082031 102.796875 36.667969 104.089844 C 36.289062 105.242188 35.96875 106.414062 35.621094 107.578125 C 35.191406 109.007812 34.753906 110.4375 34.328125 111.867188 C 33.839844 113.515625 33.390625 115.175781 32.875 116.8125 C 32.273438 118.753906 31.917969 120.738281 31.800781 122.765625 C 31.765625 123.070312 31.882812 123.289062 32.152344 123.425781 C 33.164062 124.085938 34.304688 124.40625 35.449219 124.71875 C 35.835938 124.835938 36.234375 124.898438 36.636719 124.90625 C 37.417969 124.90625 38.203125 124.867188 38.96875 124.792969 C 39.617188 124.730469 40.253906 124.609375 40.894531 124.492188 C 41.207031 124.4375 41.402344 124.253906 41.472656 123.941406 C 41.785156 122.847656 41.785156 121.714844 41.847656 120.589844 C 41.894531 119.519531 41.871094 118.445312 41.90625 117.378906 C 41.929688 116.558594 42.007812 115.742188 42.039062 114.921875 C 42.082031 113.8125 42.089844 112.699219 42.128906 111.589844 C 42.191406 110.03125 42.28125 108.476562 42.335938 106.921875 C 42.394531 105.425781 42.410156 103.929688 42.46875 102.433594 C 42.519531 101.175781 42.601562 99.917969 42.675781 98.660156 C 42.726562 97.742188 42.789062 96.820312 42.839844 95.898438 C 42.90625 94.777344 42.960938 93.652344 43.039062 92.53125 C 43.105469 91.5 43.183594 90.464844 43.285156 89.433594 C 43.351562 88.78125 43.464844 88.128906 43.546875 87.476562 C 43.582031 87.195312 43.597656 86.921875 43.621094 86.65625 Z M 51.5 25.101562 C 51.695312 24.648438 51.832031 24.292969 51.996094 23.953125 C 52.734375 22.542969 53.355469 21.082031 53.855469 19.574219 C 54.113281 18.796875 54.304688 18.007812 54.433594 17.199219 C 54.46875 16.820312 54.453125 16.441406 54.386719 16.066406 C 54.375 15.941406 54.316406 15.84375 54.214844 15.773438 C 54.113281 15.703125 54.003906 15.679688 53.882812 15.710938 C 53.628906 15.71875 53.375 15.738281 53.125 15.777344 C 51.871094 16.019531 50.644531 16.253906 49.421875 16.550781 C 48.570312 16.761719 47.734375 17.050781 46.917969 17.332031 C 46.46875 17.484375 46.035156 17.6875 45.558594 17.882812 C 45.851562 18.144531 46.109375 18.351562 46.335938 18.589844 C 46.847656 19.140625 47.367188 19.6875 47.84375 20.269531 C 48.570312 21.164062 49.269531 22.078125 49.964844 22.988281 C 50.453125 23.664062 50.949219 24.355469 51.5 25.101562 Z M 51.5 25.101562 " fill-opacity="1" fill-rule="nonzero"/></g><path fill="#000000" d="M 36.777344 63.878906 C 37.011719 63.507812 37.234375 63.128906 37.484375 62.769531 C 38.089844 61.902344 38.714844 61.054688 39.3125 60.179688 C 40.339844 58.6875 41.367188 57.191406 42.367188 55.679688 C 42.847656 54.957031 43.265625 54.195312 43.71875 53.457031 C 44.429688 52.304688 45.164062 51.167969 45.847656 50 C 46.667969 48.609375 47.488281 47.214844 48.234375 45.78125 C 48.894531 44.523438 49.464844 43.207031 50.058594 41.910156 C 50.300781 41.378906 50.507812 40.839844 50.730469 40.304688 L 50.84375 40.339844 C 50.710938 40.722656 50.605469 41.113281 50.445312 41.480469 C 49.421875 43.949219 48.25 46.34375 46.925781 48.664062 C 46.441406 49.484375 45.890625 50.269531 45.394531 51.085938 C 44.898438 51.902344 44.457031 52.691406 43.980469 53.488281 C 43.597656 54.117188 43.199219 54.742188 42.789062 55.371094 C 42.34375 56.054688 41.882812 56.726562 41.417969 57.398438 C 41.042969 57.945312 40.65625 58.480469 40.277344 59.023438 C 39.617188 59.96875 38.96875 60.941406 38.304688 61.898438 C 37.832031 62.578125 37.339844 63.25 36.855469 63.925781 Z M 36.777344 63.878906 " fill-opacity="1" fill-rule="nonzero"/><path fill="#000000" d="M 51.757812 43.203125 C 51.648438 43.550781 51.554688 43.902344 51.429688 44.238281 C 50.894531 45.632812 50.269531 46.988281 49.550781 48.296875 C 49.152344 49.035156 48.863281 49.828125 48.503906 50.585938 C 48.019531 51.601562 47.523438 52.609375 47.015625 53.617188 C 46.703125 54.230469 46.390625 54.839844 46.035156 55.433594 C 45.5625 56.238281 45.070312 57.035156 44.566406 57.828125 C 43.960938 58.800781 43.34375 59.765625 42.71875 60.726562 C 42 61.824219 41.265625 62.925781 40.546875 64.019531 C 40.332031 64.332031 40.144531 64.6875 39.945312 65.023438 L 39.835938 64.96875 C 39.867188 64.890625 39.902344 64.816406 39.945312 64.746094 C 40.257812 64.292969 40.570312 63.847656 40.882812 63.390625 C 41.351562 62.671875 41.792969 61.9375 42.253906 61.21875 C 42.925781 60.160156 43.628906 59.121094 44.269531 58.046875 C 45.050781 56.742188 45.800781 55.425781 46.523438 54.089844 C 47.03125 53.148438 47.464844 52.203125 47.929688 51.234375 C 48.257812 50.558594 48.582031 49.878906 48.90625 49.203125 C 49.308594 48.359375 49.714844 47.523438 50.109375 46.6875 C 50.503906 45.851562 50.871094 45.042969 51.238281 44.210938 C 51.347656 43.96875 51.414062 43.707031 51.507812 43.457031 C 51.550781 43.359375 51.605469 43.261719 51.664062 43.167969 Z M 51.757812 43.203125 " fill-opacity="1" fill-rule="nonzero"/><path fill="#000000" d="M 38.855469 52.894531 C 39.609375 51.976562 40.363281 51.0625 41.113281 50.144531 C 41.757812 49.351562 42.425781 48.570312 43.019531 47.75 C 43.902344 46.519531 44.734375 45.253906 45.570312 43.980469 C 46.277344 42.902344 46.996094 41.832031 47.632812 40.710938 C 48.265625 39.59375 48.765625 38.492188 49.316406 37.375 C 49.476562 37.058594 49.605469 36.726562 49.75 36.402344 L 49.84375 36.402344 C 49.839844 36.546875 49.816406 36.6875 49.777344 36.824219 C 49.328125 37.792969 48.914062 38.785156 48.40625 39.722656 C 47.777344 40.851562 47.128906 41.960938 46.425781 43.035156 C 45.410156 44.609375 44.351562 46.132812 43.296875 47.664062 C 42.898438 48.242188 42.449219 48.785156 42.007812 49.332031 C 41.457031 50.015625 40.898438 50.6875 40.335938 51.355469 C 39.960938 51.804688 39.574219 52.242188 39.179688 52.675781 C 39.085938 52.753906 38.980469 52.816406 38.867188 52.863281 Z M 38.855469 52.894531 " fill-opacity="1" fill-rule="nonzero"/><path fill="#000000" d="M 41.058594 43.8125 C 43.859375 40.769531 46.875 37.941406 49.117188 34.40625 L 49.203125 34.460938 C 49.136719 34.652344 49.050781 34.832031 48.945312 35.007812 C 48.238281 35.980469 47.535156 36.960938 46.789062 37.90625 C 46.308594 38.519531 45.765625 39.082031 45.226562 39.652344 C 44.347656 40.59375 43.460938 41.558594 42.558594 42.480469 C 42.09375 42.964844 41.59375 43.421875 41.105469 43.871094 Z M 41.058594 43.8125 " fill-opacity="1" fill-rule="nonzero"/><path fill="#000000" d="M 41.242188 39.214844 C 41.351562 39.074219 41.472656 38.941406 41.605469 38.824219 C 42.441406 38.164062 43.28125 37.519531 44.109375 36.875 C 45.066406 36.136719 46.046875 35.425781 46.976562 34.652344 C 47.429688 34.222656 47.851562 33.769531 48.246094 33.285156 C 48.398438 33.117188 48.558594 32.945312 48.695312 32.777344 L 48.796875 32.847656 C 48.617188 33.167969 48.414062 33.464844 48.175781 33.742188 C 47.410156 34.433594 46.613281 35.085938 45.816406 35.75 C 45.425781 36.0625 45.039062 36.402344 44.632812 36.714844 C 43.859375 37.308594 43.070312 37.894531 42.296875 38.476562 C 41.953125 38.730469 41.601562 38.96875 41.25 39.214844 Z M 41.242188 39.214844 " fill-opacity="1" fill-rule="nonzero"/><path fill="#000000" d="M 35.503906 71.601562 C 35.796875 71.113281 36.070312 70.613281 36.382812 70.136719 C 36.902344 69.339844 37.453125 68.566406 37.972656 67.765625 C 38.496094 66.964844 39.027344 66.117188 39.539062 65.292969 C 39.582031 65.246094 39.632812 65.226562 39.695312 65.234375 C 39.453125 65.636719 39.222656 66.046875 38.964844 66.441406 C 38.453125 67.230469 37.921875 68.011719 37.402344 68.796875 C 36.882812 69.578125 36.339844 70.472656 35.800781 71.308594 C 35.707031 71.417969 35.601562 71.515625 35.484375 71.597656 Z M 35.503906 71.601562 " fill-opacity="1" fill-rule="nonzero"/><path fill="#000000" d="M 38.851562 52.882812 C 38.851562 52.957031 38.878906 53.050781 38.851562 53.097656 C 38.597656 53.449219 38.335938 53.796875 38.066406 54.136719 C 37.578125 54.742188 37.070312 55.328125 36.585938 55.9375 C 36.152344 56.480469 35.738281 57.042969 35.289062 57.574219 C 36.367188 55.929688 37.679688 54.460938 38.863281 52.894531 Z M 38.851562 52.882812 " fill-opacity="1" fill-rule="nonzero"/><path fill="#000000" d="M 35.5 71.597656 C 35.382812 71.816406 35.28125 72.042969 35.148438 72.253906 C 34.675781 73.023438 34.210938 73.785156 33.664062 74.523438 C 33.8125 74.246094 33.941406 73.957031 34.109375 73.6875 C 34.515625 73.039062 34.933594 72.402344 35.359375 71.757812 C 35.40625 71.703125 35.457031 71.648438 35.515625 71.601562 Z M 35.5 71.597656 " fill-opacity="1" fill-rule="nonzero"/><path fill="#000000" d="M 39.101562 45.652344 L 40.28125 44.542969 L 40.339844 44.605469 L 39.148438 45.710938 Z M 39.101562 45.652344 " fill-opacity="1" fill-rule="nonzero"/><path fill="#000000" d="M 45.671875 32.699219 C 45.550781 32.808594 45.421875 32.90625 45.28125 32.992188 C 44.992188 33.140625 44.6875 33.261719 44.371094 33.402344 C 44.761719 33.085938 45.199219 32.855469 45.679688 32.710938 Z M 45.671875 32.699219 " fill-opacity="1" fill-rule="nonzero"/><path fill="#000000" d="M 35.34375 80.398438 C 35.136719 80.863281 34.917969 81.324219 34.695312 81.785156 L 34.589844 81.726562 C 34.789062 81.257812 35.039062 80.816406 35.34375 80.40625 Z M 35.34375 80.398438 " fill-opacity="1" fill-rule="nonzero"/><path fill="#000000" d="M 41.113281 24.804688 L 40.296875 24.113281 L 40.363281 24.035156 L 41.167969 24.742188 Z M 41.113281 24.804688 " fill-opacity="1" fill-rule="nonzero"/><path fill="#000000" d="M 41.890625 29.144531 L 42.960938 29.613281 L 41.898438 29.144531 Z M 41.890625 29.144531 " fill-opacity="1" fill-rule="nonzero"/><path fill="#000000" d="M 40.746094 39.578125 C 40.773438 39.261719 40.980469 39.207031 41.242188 39.214844 L 40.742188 39.566406 Z M 40.746094 39.578125 " fill-opacity="1" fill-rule="nonzero"/><path fill="#000000" d="M 35.910156 65.191406 L 36.152344 64.765625 L 36.222656 64.804688 L 35.972656 65.238281 Z M 35.910156 65.191406 " fill-opacity="1" fill-rule="nonzero"/><path fill="#000000" d="M 39.289062 40.375 L 38.933594 40.769531 L 38.871094 40.707031 L 39.289062 40.367188 Z M 39.289062 40.375 " fill-opacity="1" fill-rule="nonzero"/><path fill="#000000" d="M 40.738281 39.566406 C 40.617188 39.671875 40.492188 39.773438 40.363281 39.882812 L 40.300781 39.777344 L 40.746094 39.585938 Z M 40.738281 39.566406 " fill-opacity="1" fill-rule="nonzero"/><path fill="#000000" d="M 36.285156 64.582031 C 36.359375 64.476562 36.4375 64.375 36.515625 64.265625 L 36.585938 64.3125 L 36.367188 64.625 Z M 36.285156 64.582031 " fill-opacity="1" fill-rule="nonzero"/><path fill="#000000" d="M 40.628906 44.199219 L 40.886719 43.988281 L 40.925781 44.035156 L 40.679688 44.261719 Z M 40.628906 44.199219 " fill-opacity="1" fill-rule="nonzero"/><path fill="#000000" d="M 39.726562 40.160156 C 39.675781 40.417969 39.496094 40.40625 39.304688 40.375 L 39.734375 40.171875 Z M 39.726562 40.160156 " fill-opacity="1" fill-rule="nonzero"/><path fill="#000000" d="M 39.726562 40.171875 L 40.039062 39.957031 L 40.082031 40.027344 L 39.722656 40.160156 Z M 39.726562 40.171875 " fill-opacity="1" fill-rule="nonzero"/><path fill="#000000" d="M 39.894531 23.589844 L 40.011719 23.75 L 39.964844 23.789062 L 39.835938 23.628906 Z M 39.894531 23.589844 " fill-opacity="1" fill-rule="nonzero"/><path fill="#000000" d="M 35.21875 66.320312 L 35.171875 66.367188 C 35.171875 66.351562 35.136719 66.332031 35.140625 66.324219 C 35.148438 66.304688 35.167969 66.292969 35.1875 66.285156 C 35.1875 66.285156 35.210938 66.308594 35.21875 66.320312 Z M 35.21875 66.320312 " fill-opacity="1" fill-rule="nonzero"/><path fill="#000000" d="M 35.472656 65.839844 L 35.507812 65.839844 C 35.511719 65.859375 35.511719 65.875 35.507812 65.890625 C 35.507812 65.890625 35.480469 65.890625 35.464844 65.890625 Z M 35.472656 65.839844 " fill-opacity="1" fill-rule="nonzero"/><path fill="#000000" d="M 35.789062 65.4375 L 35.703125 65.546875 L 35.664062 65.523438 L 35.738281 65.394531 Z M 35.789062 65.4375 " fill-opacity="1" fill-rule="nonzero"/><path fill="#000000" d="M 34.816406 58.308594 C 34.796875 58.355469 34.773438 58.402344 34.746094 58.445312 C 34.722656 58.441406 34.707031 58.433594 34.6875 58.425781 L 34.757812 58.269531 Z M 34.816406 58.308594 " fill-opacity="1" fill-rule="nonzero"/><path fill="#000000" d="M 35.058594 57.960938 L 34.945312 58.140625 L 34.890625 58.085938 L 35.066406 57.96875 Z M 35.058594 57.960938 " fill-opacity="1" fill-rule="nonzero"/><path fill="#000000" d="M 35.066406 57.96875 L 35.109375 57.726562 L 35.199219 57.757812 L 35.058594 57.960938 Z M 35.066406 57.96875 " fill-opacity="1" fill-rule="nonzero"/><path fill="#000000" d="M 41.898438 29.144531 L 41.6875 29.144531 L 41.6875 29.078125 L 41.882812 29.148438 Z M 41.898438 29.144531 " fill-opacity="1" fill-rule="nonzero"/><path fill="#000000" d="M 56.71875 101.253906 L 57.628906 103.503906 C 58.085938 104.644531 58.566406 105.785156 59.007812 106.925781 C 59.042969 107.054688 59.058594 107.183594 59.054688 107.316406 C 58.429688 105.746094 57.8125 104.175781 57.203125 102.601562 C 57.070312 102.273438 56.933594 101.941406 56.808594 101.609375 C 56.769531 101.488281 56.742188 101.367188 56.71875 101.246094 Z M 56.71875 101.253906 " fill-opacity="1" fill-rule="nonzero"/><path fill="#000000" d="M 50.324219 96.320312 C 50.390625 96.519531 50.472656 96.710938 50.523438 96.910156 C 50.824219 98.082031 51.125 99.253906 51.414062 100.429688 C 51.441406 100.585938 51.453125 100.746094 51.449219 100.910156 C 51.308594 100.441406 51.152344 99.964844 51.035156 99.503906 C 50.800781 98.582031 50.589844 97.65625 50.375 96.730469 C 50.347656 96.589844 50.335938 96.453125 50.328125 96.3125 Z M 50.324219 96.320312 " fill-opacity="1" fill-rule="nonzero"/><path fill="#000000" d="M 46.976562 83.046875 C 46.976562 84.007812 46.878906 84.957031 46.679688 85.894531 L 46.585938 85.894531 C 46.585938 85.75 46.605469 85.605469 46.628906 85.464844 C 46.65625 85.324219 46.714844 85.152344 46.734375 84.980469 C 46.792969 84.417969 46.84375 83.851562 46.902344 83.289062 C 46.917969 83.210938 46.945312 83.136719 46.984375 83.066406 Z M 46.976562 83.046875 " fill-opacity="1" fill-rule="nonzero"/><path fill="#000000" d="M 49.839844 93.257812 C 49.804688 93.214844 49.734375 93.175781 49.730469 93.132812 C 49.589844 92.191406 49.460938 91.230469 49.332031 90.28125 C 49.410156 90.5 49.472656 90.726562 49.519531 90.953125 C 49.636719 91.71875 49.738281 92.488281 49.832031 93.257812 Z M 49.839844 93.257812 " fill-opacity="1" fill-rule="nonzero"/><path fill="#000000" d="M 56.117188 86.566406 C 56.074219 86.535156 56.007812 86.515625 55.992188 86.472656 C 55.8125 85.910156 55.664062 85.335938 55.550781 84.753906 C 55.738281 85.363281 55.921875 85.96875 56.109375 86.574219 Z M 56.117188 86.566406 " fill-opacity="1" fill-rule="nonzero"/><path fill="#000000" d="M 49.835938 93.273438 C 49.929688 93.796875 50.027344 94.316406 50.121094 94.847656 L 50.058594 94.847656 C 49.957031 94.398438 49.847656 93.953125 49.746094 93.5 C 49.746094 93.433594 49.804688 93.34375 49.835938 93.265625 Z M 49.835938 93.273438 " fill-opacity="1" fill-rule="nonzero"/><path fill="#000000" d="M 56 99.417969 C 56.164062 99.816406 56.3125 100.21875 56.480469 100.621094 C 56.324219 100.21875 56.167969 99.816406 56.007812 99.414062 Z M 56 99.417969 " fill-opacity="1" fill-rule="nonzero"/><path fill="#000000" d="M 56.109375 86.574219 C 56.230469 86.9375 56.441406 87.28125 56.390625 87.675781 L 56.28125 87.699219 C 56.226562 87.324219 56.167969 86.945312 56.117188 86.566406 Z M 56.109375 86.574219 " fill-opacity="1" fill-rule="nonzero"/><path fill="#000000" d="M 56.023438 99.40625 C 55.859375 99.046875 55.695312 98.683594 55.53125 98.324219 L 55.628906 98.28125 L 56 99.417969 Z M 56.023438 99.40625 " fill-opacity="1" fill-rule="nonzero"/><path fill="#000000" d="M 50.175781 95.078125 C 50.210938 95.324219 50.246094 95.570312 50.28125 95.8125 L 50.195312 95.828125 C 50.152344 95.582031 50.105469 95.335938 50.058594 95.089844 Z M 50.175781 95.078125 " fill-opacity="1" fill-rule="nonzero"/><path fill="#000000" d="M 48.945312 87.070312 L 48.851562 86.277344 L 48.90625 86.277344 C 48.941406 86.539062 48.984375 86.796875 49.019531 87.058594 Z M 48.945312 87.070312 " fill-opacity="1" fill-rule="nonzero"/><path fill="#000000" d="M 48.707031 83.75 L 48.753906 83.75 L 48.753906 84.378906 L 48.707031 84.378906 Z M 48.707031 83.75 " fill-opacity="1" fill-rule="nonzero"/><path fill="#000000" d="M 54.882812 96.457031 L 54.570312 95.703125 L 54.664062 95.671875 L 54.859375 96.460938 Z M 54.882812 96.457031 " fill-opacity="1" fill-rule="nonzero"/><path fill="#000000" d="M 49.332031 90.296875 C 49.289062 90.0625 49.25 89.832031 49.210938 89.601562 L 49.320312 89.601562 L 49.320312 90.3125 Z M 49.332031 90.296875 " fill-opacity="1" fill-rule="nonzero"/><path fill="#000000" d="M 49.117188 88.769531 C 49.09375 88.582031 49.066406 88.394531 49.046875 88.207031 L 49.128906 88.207031 C 49.148438 88.398438 49.167969 88.589844 49.1875 88.78125 Z M 49.117188 88.769531 " fill-opacity="1" fill-rule="nonzero"/><path fill="#000000" d="M 56.496094 100.621094 L 56.71875 101.25 Z M 56.496094 100.621094 " fill-opacity="1" fill-rule="nonzero"/><path fill="#000000" d="M 48.769531 85.039062 L 48.714844 84.617188 L 48.765625 84.617188 L 48.839844 85.035156 Z M 48.769531 85.039062 " fill-opacity="1" fill-rule="nonzero"/><path fill="#000000" d="M 54.875 96.460938 L 55.09375 96.84375 L 55.019531 96.875 C 54.972656 96.734375 54.925781 96.59375 54.882812 96.457031 Z M 54.875 96.460938 " fill-opacity="1" fill-rule="nonzero"/><path fill="#000000" d="M 47.058594 82.257812 L 47.058594 81.828125 L 47.109375 81.828125 C 47.109375 81.976562 47.109375 82.144531 47.085938 82.273438 Z M 47.058594 82.257812 " fill-opacity="1" fill-rule="nonzero"/><path fill="#000000" d="M 46.984375 83.058594 L 46.945312 82.597656 L 47.058594 82.597656 L 46.976562 83.039062 Z M 46.984375 83.058594 " fill-opacity="1" fill-rule="nonzero"/><path fill="#000000" d="M 48.800781 85.714844 L 48.800781 85.5 L 48.84375 85.5 C 48.84375 85.570312 48.84375 85.644531 48.867188 85.714844 Z M 48.800781 85.714844 " fill-opacity="1" fill-rule="nonzero"/><path fill="#000000" d="M 47.097656 81.554688 L 47.121094 81.242188 L 47.167969 81.242188 L 47.167969 81.554688 Z M 47.097656 81.554688 " fill-opacity="1" fill-rule="nonzero"/><path fill="#000000" d="M 48.613281 83.027344 C 48.628906 83.144531 48.636719 83.199219 48.644531 83.253906 L 48.613281 83.253906 Z M 48.613281 83.027344 " fill-opacity="1" fill-rule="nonzero"/><path fill="#000000" d="M 50.332031 96.3125 L 50.246094 96.046875 L 50.359375 96.046875 C 50.359375 96.140625 50.332031 96.234375 50.324219 96.328125 Z M 50.332031 96.3125 " fill-opacity="1" fill-rule="nonzero"/><path fill="#000000" d="M 55.320312 97.492188 C 55.347656 97.582031 55.378906 97.671875 55.410156 97.761719 L 55.363281 97.777344 L 55.253906 97.535156 Z M 55.320312 97.492188 " fill-opacity="1" fill-rule="nonzero"/><path fill="#000000" d="M 49.050781 87.964844 L 49.019531 87.804688 L 49.070312 87.804688 L 49.105469 87.96875 Z M 49.050781 87.964844 " fill-opacity="1" fill-rule="nonzero"/><path fill="#000000" d="M 48.984375 87.34375 L 49.003906 87.34375 L 49.003906 87.5 L 48.984375 87.5 Z M 48.984375 87.34375 " fill-opacity="1" fill-rule="nonzero"/><path fill="#000000" d="M 55.152344 97.101562 L 55.234375 97.21875 L 55.1875 97.253906 L 55.105469 97.132812 Z M 55.152344 97.101562 " fill-opacity="1" fill-rule="nonzero"/><g clip-path="url(#13c98d3353)"><path stroke-linecap="butt" transform="matrix(0.0913043, 0, 0, 0.0913311, 86.763359, 15.003956)" fill="none" stroke-linejoin="miter" d="M 275.246195 -0.000545649 L 305.236896 -0.000545649 C 314.221272 2.993368 322.991734 6.928227 330.179234 13.129906 C 330.949323 14.156391 331.762195 15.140105 332.575067 16.12382 C 322.649472 12.916055 313.365617 7.911941 303.140542 5.730661 C 285.94188 2.137964 267.844781 6.372214 252.485777 14.370242 C 251.844035 14.02808 251.202294 13.728689 250.560553 13.429297 C 258.133098 7.869171 265.96234 2.180735 275.246195 -0.000545649 Z M 275.246195 -0.000545649 " stroke="#010101" stroke-width="0.1" stroke-opacity="1" stroke-miterlimit="10"/><path fill="#010101" d="M 111.894531 15.003906 L 114.632812 15.003906 C 115.453125 15.277344 116.253906 15.636719 116.910156 16.203125 C 116.980469 16.296875 117.054688 16.386719 117.128906 16.476562 C 116.222656 16.183594 115.375 15.726562 114.441406 15.527344 C 112.871094 15.199219 111.21875 15.585938 109.816406 16.316406 C 109.757812 16.285156 109.699219 16.257812 109.640625 16.230469 C 110.332031 15.722656 111.046875 15.203125 111.894531 15.003906 " fill-opacity="1" fill-rule="nonzero"/></g><g clip-path="url(#9fc430cc7b)"><path stroke-linecap="butt" transform="matrix(0.0913043, 0, 0, 0.0913311, 86.763359, 15.003956)" fill="none" stroke-linejoin="miter" d="M 268.572087 19.588206 C 277.085853 16.679832 286.155794 18.3051 294.969038 17.834628 C 307.889426 16.808143 319.65468 23.394754 330.607061 29.382582 C 333.08846 30.836768 335.612642 28.612718 337.837345 27.629004 C 336.553862 24.592319 335.184815 21.598405 334.029681 18.476181 C 337.837345 20.058678 338.821348 24.335698 340.618223 27.629004 C 333.601853 36.653516 322.735037 41.016076 313.10892 46.533432 C 306.306465 49.612886 299.632357 52.948962 292.487639 54.959161 C 299.717922 64.667997 306.948206 74.505143 311.996569 85.625395 C 316.23206 95.24869 320.809814 104.829214 323.291213 115.094062 C 315.932581 106.197861 311.140914 95.24869 302.712714 87.165122 C 300.231315 89.303632 296.594782 91.228291 296.466434 94.906528 C 296.680348 101.407598 298.605571 107.652048 300.102967 113.896497 C 302.584366 125.2306 305.835854 136.393622 307.589947 147.898806 C 310.071346 163.082227 313.536748 178.265648 313.493965 193.70569 C 315.29084 204.44101 313.322834 215.390181 315.119709 226.125501 C 315.376406 241.052301 315.119709 255.979101 315.248057 270.86313 C 320.339204 266.671651 324.831391 261.667538 328.211228 255.979101 C 338.607434 239.084872 344.468669 219.923822 349.730947 200.933854 C 357.774102 169.112825 362.565769 136.479162 364.319861 103.717189 C 363.763686 91.869844 365.731692 79.594796 362.180724 68.046842 C 361.111156 62.443946 352.896869 61.460232 353.495828 55.087472 C 352.383477 49.869507 356.020009 45.079245 355.207137 39.989591 C 351.741735 31.13616 341.687791 27.158531 337.794562 18.518951 C 350.329905 21.127933 359.956022 30.152445 369.967183 37.50892 C 378.865993 44.779854 389.176634 50.639371 396.193003 60.006045 C 408.386084 73.90636 426.611532 79.509256 443.895759 84.000127 C 469.479838 90.372887 495.534528 95.847472 521.931479 96.788417 C 533.65395 100.723275 541.483191 112.912782 541.953801 125.102289 C 543.96459 147.941576 547.643906 170.567012 550.253653 193.320758 C 551.194873 198.624263 550.852611 204.056078 550.767046 209.445123 C 554.788624 211.155931 559.024115 212.652888 562.06169 215.946194 C 559.195246 220.736456 554.57471 224.756855 553.462359 230.402521 C 552.820618 234.123529 555.815409 236.775281 558.254026 238.999332 C 560.35038 240.624599 560.735425 243.276352 561.505514 245.628713 C 559.024115 246.612427 556.542716 247.638912 554.1041 248.665397 C 556.28602 256.150182 560.649859 262.865103 561.847776 270.649279 C 565.912136 292.675932 565.056481 315.301368 569.120842 337.328021 C 571.302762 354.09394 572.457896 370.988169 573.527464 387.839627 C 574.639815 393.100362 573.484681 398.617718 574.982077 403.878452 L 574.982077 435.40009 C 573.014071 445.793248 572.158416 456.357488 570.447107 466.836187 C 561.206035 474.235431 553.120097 483.088863 542.852239 489.162231 C 536.007 493.524791 529.332893 498.186743 522.530437 502.634844 C 505.288992 514.353879 486.764066 524.105484 469.437056 535.610668 C 471.362279 540.999713 470.036014 546.81646 471.105582 552.376586 C 474.870464 607.550144 478.421431 662.723702 482.314661 717.85449 C 473.373068 723.115225 462.762948 723.671237 452.709004 724.441101 C 452.666221 742.703976 449.200819 760.753 448.815774 778.973106 C 448.045685 794.028216 445.050893 808.869475 444.152456 823.924586 C 442.997322 844.839214 438.29122 865.36891 435.809821 886.112456 C 430.889806 921.226791 420.4936 955.186329 413.77671 989.958502 C 412.621576 998.769163 414.118972 1007.750905 412.878272 1016.561566 C 412.022617 1028.10952 413.263317 1039.700244 412.236531 1051.248198 C 411.081397 1057.449877 412.0654 1063.737097 411.295311 1069.938776 C 409.41287 1083.62524 407.915474 1097.482785 409.669567 1111.212019 C 410.097394 1150.04736 417.456025 1188.455 418.054984 1227.247571 C 419.723511 1236.485934 418.097767 1245.852608 419.381249 1255.133741 C 420.151338 1265.44136 418.825073 1275.877288 420.4936 1286.184907 C 419.723511 1303.635148 424.172916 1320.657688 427.338839 1337.637457 C 429.691889 1351.15284 434.783035 1364.582683 443.810194 1375.061382 C 445.820983 1378.140836 449.84256 1376.85773 452.922918 1377.071581 C 459.254763 1378.654079 460.45268 1386.096094 465.843305 1388.961697 C 470.207145 1391.74176 474.699333 1394.350742 478.806476 1397.472967 C 482.229095 1401.365055 484.325449 1406.155317 484.154318 1411.416052 C 485.908411 1412.827469 487.61972 1414.281655 489.33103 1415.821383 C 489.288247 1418.259284 489.288247 1420.697185 489.33103 1423.177857 C 483.341446 1425.572988 477.394645 1428.01089 471.405062 1430.406021 C 459.126415 1435.281824 445.564286 1436.992632 432.472767 1435.110743 C 425.670312 1434.127028 418.696725 1434.51196 412.022617 1432.843922 C 406.075816 1429.379536 398.973881 1428.267511 393.626039 1423.81941 C 387.935934 1417.959893 384.513315 1409.662474 377.026335 1405.727615 C 374.159892 1403.888497 370.908403 1405.257143 367.913611 1405.855926 C 366.544564 1407.352883 365.132733 1408.84984 363.763686 1410.346797 C 356.319489 1410.432337 349.174771 1408.079976 342.243967 1405.599305 C 334.970901 1402.562621 326.970528 1399.996409 321.579903 1393.92304 C 320.852596 1387.208119 320.381986 1380.450427 320.424769 1373.692736 C 319.355201 1366.806733 319.783028 1359.877961 319.18407 1352.991959 C 316.959367 1352.607027 314.777447 1352.222095 312.552745 1351.922704 C 312.039352 1349.270951 311.654307 1346.619199 311.269263 1343.967447 C 310.071346 1334.515233 304.381241 1326.132273 305.022982 1316.380668 C 305.236896 1306.671832 306.777075 1297.005767 306.948206 1287.296932 C 303.910631 1263.687781 300.060184 1240.078631 299.076181 1216.25563 C 299.589574 1202.013153 297.664351 1187.856217 296.038607 1173.699281 C 294.626776 1162.151327 295.225735 1150.432292 293.043815 1139.012649 C 287.097014 1100.433928 280.123427 1062.069059 273.534885 1023.618649 C 266.43295 981.01953 258.560926 938.505951 253.084735 895.650211 C 252.357428 915.025112 252.913604 934.400012 252.742473 953.774913 C 252.785256 1002.49017 252.656908 1051.205428 252.785256 1099.963456 C 254.068738 1108.688577 252.870821 1117.542008 254.282652 1126.267129 C 254.796045 1131.698944 254.025955 1137.2163 254.967176 1142.648116 C 257.149095 1165.230781 252.870821 1187.642366 250.34664 1209.96841 C 248.549764 1222.414539 249.277071 1234.988977 249.148723 1247.520646 C 249.405419 1273.311076 247.651327 1299.486439 239.522606 1324.164844 C 237.126773 1330.794225 233.575805 1337.722998 235.415463 1344.993931 C 236.698945 1361.88816 233.319109 1378.782389 233.019629 1395.676618 C 227.629004 1401.792757 219.671414 1404.401739 212.056086 1406.454709 C 204.526324 1408.293827 196.739865 1410.346797 188.996189 1408.978151 C 184.974611 1406.71133 180.910251 1404.48728 176.289715 1403.931267 C 173.337706 1404.701131 170.214566 1405.128833 167.604819 1406.7541 C 159.518881 1411.672673 154.769996 1420.697185 146.256231 1425.016976 C 140.822823 1427.839809 134.576543 1428.224741 129.014786 1430.577102 C 121.057197 1434.340879 112.115604 1434.212569 103.644621 1435.966147 C 97.868951 1437.591414 92.007716 1435.880606 86.14648 1435.837836 C 69.632342 1434.51196 54.187773 1427.968119 38.22981 1424.076031 C 38.315376 1420.996577 38.657638 1417.959893 39.641641 1415.094289 C 41.524081 1414.196115 43.449305 1413.297941 45.331745 1412.442537 C 45.759573 1407.139032 47.727579 1401.707217 52.305332 1398.627762 C 58.851091 1394.479053 66.16694 1391.78453 72.88383 1387.935212 C 76.605929 1385.668392 79.001762 1381.904614 82.424382 1379.338402 C 86.488742 1377.114352 91.280409 1378.269147 95.687031 1378.098066 C 103.345142 1373.393344 107.880112 1365.395317 112.628997 1358.081613 C 117.634577 1348.415547 122.297896 1337.551917 120.030411 1326.431665 C 119.345887 1315.183102 117.891274 1304.02008 116.821705 1292.814288 C 118.91806 1291.14625 123.666944 1291.017939 123.239116 1287.553553 C 122.0412 1265.056428 117.591795 1242.516532 120.415455 1219.976637 C 121.099979 1195.683164 126.362256 1171.817392 127.132346 1147.566689 C 128.501393 1139.2265 127.003998 1130.758 128.244697 1122.417811 C 129.314266 1106.934999 127.474608 1091.281106 129.271483 1075.883834 C 127.389042 1046.586247 122.0412 1017.630821 116.308312 988.846477 C 114.126393 969.557117 108.821333 950.780999 106.896109 931.448868 C 104.756972 912.245049 104.243579 892.827378 101.034874 873.709098 C 97.013296 848.859612 95.130856 823.753505 92.136064 798.818478 C 91.066495 779.95682 94.360766 761.266243 96.28599 742.575666 C 97.441124 735.433042 96.842165 728.076568 98.425127 720.976715 C 98.681823 720.292391 99.237999 718.966515 99.494695 718.282192 C 92.606674 715.117197 84.991346 713.66301 78.017759 710.626326 C 75.194098 709.813692 72.284872 707.717953 69.29008 708.787208 C 70.316866 705.921604 70.659128 702.88492 71.086955 699.891006 C 77.889411 644.974069 84.948563 590.099903 91.793802 535.225736 C 90.895364 531.590269 91.751019 527.39879 89.611882 524.191025 C 84.73465 519.443532 79.044545 515.636985 73.440006 511.830437 C 64.156151 505.372137 56.02743 497.45965 47.342534 490.317026 C 41.139037 485.569534 36.860763 478.940153 31.726834 473.166176 C 24.154288 463.500111 16.410612 453.876816 9.950418 443.440887 C 6.057189 436.897047 1.778915 430.310436 0.666564 422.65457 C -0.830832 415.554717 0.880477 408.412093 0.92326 401.31224 C 1.778915 378.729575 7.083975 356.574611 8.281892 333.991946 C 9.907636 316.755555 12.645731 299.647475 15.768871 282.624935 C 18.464184 268.810161 21.801238 255.123697 23.55533 241.137842 C 23.983157 236.304809 28.689259 233.182584 28.774824 228.264011 C 25.865598 226.980905 21.073931 224.414693 23.213068 220.565375 C 25.694467 217.742542 29.673262 216.587747 32.753619 214.406467 C 33.181447 212.90951 33.609274 211.412553 34.079884 209.958366 C 32.325792 207.734315 30.443351 205.467495 29.587697 202.730202 C 28.518128 196.442983 31.726834 190.754546 32.881968 184.766718 C 36.689632 165.006886 40.967906 145.332594 46.572445 126.043234 C 48.925495 118.430138 49.567237 110.38934 52.348115 102.947326 C 54.14499 97.344429 59.535615 93.708962 64.969023 92.212005 C 81.825423 87.892215 99.195216 86.309718 116.179964 82.802561 C 130.597748 79.637567 145.486142 77.755678 159.005488 71.596769 C 166.877512 68.175153 175.391277 65.30955 181.723123 59.278951 C 185.359656 55.301323 188.268882 50.639371 192.76107 47.559917 C 203.285625 40.032361 215.050878 34.600546 225.832129 27.500693 C 224.078037 33.27467 221.724986 38.792026 219.799763 44.480462 C 217.746191 50.853222 218.772977 57.910305 222.110031 63.684282 C 220.997679 71.511229 217.232798 78.782163 214.665834 86.266948 C 210.38756 97.42997 209.232426 109.533936 208.67625 121.381282 C 207.050506 131.389509 208.847381 141.440506 209.660253 151.405962 C 214.066875 178.650579 222.666206 205.510265 236.570597 229.461577 C 245.597755 246.013644 254.753262 262.736793 266.775212 277.406971 C 267.203039 277.19312 268.058694 276.765418 268.486522 276.594337 L 266.90356 274.199206 C 267.160257 257.775449 266.732429 241.351693 267.117474 224.927936 C 268.786001 215.775113 266.989126 206.451209 268.572087 197.298387 C 269.256611 182.884829 269.598873 168.428502 270.754007 154.057714 C 273.791582 133.570789 282.861523 114.49528 284.70118 93.794503 C 282.34813 90.843359 279.652817 88.148836 277.000287 85.454314 C 273.91993 86.994041 270.839572 88.83316 268.999915 91.912614 C 263.78042 98.157063 260.272235 105.812929 254.111521 111.287515 C 256.678485 100.851586 262.796417 91.784303 266.689647 81.861617 C 271.695227 72.580484 274.732802 61.503002 283.888308 55.258553 C 277.941507 51.623086 271.395748 49.185184 265.192251 46.020189 C 254.325434 40.887765 242.602963 36.311354 233.918067 27.800084 C 232.591802 22.453809 238.410255 21.683946 242.303484 22.197188 C 241.105567 23.223673 239.950433 24.292928 238.838082 25.362183 C 240.164347 27.372382 241.704526 29.211501 243.159139 31.13616 C 251.330643 26.688059 259.544929 22.111648 268.572087 19.588206 Z M 268.572087 19.588206 " stroke="#010101" stroke-width="0.1" stroke-opacity="1" stroke-miterlimit="10"/><path fill="#010101" d="M 111.285156 16.792969 C 112.0625 16.527344 112.890625 16.675781 113.695312 16.632812 C 114.875 16.539062 115.949219 17.140625 116.949219 17.6875 C 117.175781 17.820312 117.40625 17.617188 117.609375 17.527344 C 117.492188 17.25 117.367188 16.976562 117.261719 16.691406 C 117.609375 16.835938 117.699219 17.226562 117.863281 17.527344 C 117.222656 18.351562 116.230469 18.75 115.351562 19.253906 C 114.730469 19.535156 114.121094 19.839844 113.46875 20.023438 C 114.128906 20.910156 114.789062 21.808594 115.25 22.824219 C 115.636719 23.703125 116.054688 24.578125 116.28125 25.515625 C 115.609375 24.703125 115.171875 23.703125 114.402344 22.964844 C 114.175781 23.160156 113.84375 23.335938 113.832031 23.671875 C 113.851562 24.265625 114.027344 24.835938 114.164062 25.40625 C 114.390625 26.441406 114.6875 27.460938 114.847656 28.511719 C 115.074219 29.898438 115.390625 31.285156 115.386719 32.695312 C 115.550781 33.675781 115.371094 34.675781 115.535156 35.65625 C 115.558594 37.019531 115.535156 38.382812 115.546875 39.742188 C 116.011719 39.359375 116.421875 38.902344 116.730469 38.382812 C 117.679688 36.839844 118.214844 35.089844 118.695312 33.355469 C 119.429688 30.449219 119.867188 27.46875 120.027344 24.476562 C 119.976562 23.394531 120.15625 22.273438 119.832031 21.21875 C 119.734375 20.707031 118.984375 20.617188 119.039062 20.035156 C 118.9375 19.558594 119.269531 19.121094 119.195312 18.65625 C 118.878906 17.847656 117.960938 17.484375 117.605469 16.695312 C 118.75 16.933594 119.628906 17.757812 120.542969 18.429688 C 121.355469 19.09375 122.296875 19.628906 122.9375 20.484375 C 124.050781 21.753906 125.714844 22.265625 127.292969 22.675781 C 129.628906 23.257812 132.007812 23.757812 134.417969 23.84375 C 135.488281 24.203125 136.203125 25.316406 136.246094 26.429688 C 136.429688 28.515625 136.765625 30.582031 137.003906 32.660156 C 137.089844 33.144531 137.058594 33.640625 137.050781 34.132812 C 137.417969 34.289062 137.804688 34.425781 138.082031 34.726562 C 137.820312 35.164062 137.398438 35.53125 137.296875 36.046875 C 137.238281 36.386719 137.511719 36.628906 137.734375 36.832031 C 137.925781 36.980469 137.960938 37.222656 138.03125 37.4375 C 137.804688 37.527344 137.578125 37.621094 137.355469 37.714844 C 137.554688 38.398438 137.953125 39.011719 138.0625 39.722656 C 138.433594 41.734375 138.355469 43.800781 138.726562 45.8125 C 138.925781 47.34375 139.03125 48.886719 139.128906 50.425781 C 139.230469 50.90625 139.125 51.410156 139.261719 51.890625 L 139.261719 54.769531 C 139.082031 55.71875 139.003906 56.683594 138.847656 57.640625 C 138.003906 58.316406 137.265625 59.125 136.328125 59.679688 C 135.703125 60.078125 135.09375 60.503906 134.472656 60.910156 C 132.898438 61.980469 131.207031 62.871094 129.625 63.921875 C 129.800781 64.414062 129.679688 64.945312 129.777344 65.453125 C 130.121094 70.492188 130.445312 75.53125 130.800781 80.566406 C 129.984375 81.046875 129.015625 81.097656 128.097656 81.167969 C 128.09375 82.835938 127.777344 84.484375 127.742188 86.148438 C 127.671875 87.523438 127.398438 88.878906 127.316406 90.253906 C 127.210938 92.164062 126.78125 94.039062 126.554688 95.933594 C 126.105469 99.140625 125.15625 102.242188 124.542969 105.417969 C 124.4375 106.222656 124.574219 107.042969 124.460938 107.847656 C 124.382812 108.902344 124.496094 109.960938 124.402344 111.015625 C 124.296875 111.582031 124.386719 112.15625 124.316406 112.722656 C 124.144531 113.972656 124.007812 115.238281 124.167969 116.492188 C 124.207031 120.039062 124.878906 123.546875 124.933594 127.089844 C 125.085938 127.933594 124.9375 128.789062 125.054688 129.636719 C 125.125 130.578125 125.003906 131.53125 125.15625 132.472656 C 125.085938 134.066406 125.492188 135.621094 125.78125 137.171875 C 125.996094 138.40625 126.460938 139.632812 127.285156 140.589844 C 127.46875 140.871094 127.835938 140.753906 128.117188 140.773438 C 128.695312 140.917969 128.804688 141.597656 129.296875 141.859375 C 129.695312 142.113281 130.105469 142.351562 130.480469 142.636719 C 130.792969 142.992188 130.984375 143.429688 130.96875 143.910156 C 131.128906 144.039062 131.285156 144.171875 131.441406 144.3125 C 131.4375 144.535156 131.4375 144.757812 131.441406 144.984375 C 130.894531 145.203125 130.351562 145.425781 129.804688 145.644531 C 128.683594 146.089844 127.445312 146.246094 126.25 146.074219 C 125.628906 145.984375 124.992188 146.019531 124.382812 145.867188 C 123.839844 145.550781 123.191406 145.449219 122.703125 145.042969 C 122.183594 144.507812 121.871094 143.75 121.1875 143.390625 C 120.925781 143.222656 120.628906 143.347656 120.355469 143.402344 C 120.230469 143.539062 120.101562 143.675781 119.976562 143.8125 C 119.296875 143.820312 118.644531 143.605469 118.011719 143.378906 C 117.347656 143.101562 116.617188 142.867188 116.125 142.3125 C 116.058594 141.699219 116.015625 141.082031 116.019531 140.464844 C 115.921875 139.835938 115.960938 139.203125 115.90625 138.574219 C 115.703125 138.539062 115.503906 138.503906 115.300781 138.476562 C 115.253906 138.234375 115.21875 137.992188 115.183594 137.75 C 115.074219 136.886719 114.554688 136.121094 114.613281 135.230469 C 114.632812 134.34375 114.773438 133.460938 114.789062 132.574219 C 114.511719 130.417969 114.160156 128.261719 114.070312 126.085938 C 114.117188 124.785156 113.941406 123.492188 113.792969 122.199219 C 113.664062 121.144531 113.71875 120.074219 113.519531 119.03125 C 112.976562 115.507812 112.339844 112.003906 111.738281 108.492188 C 111.089844 104.601562 110.371094 100.71875 109.871094 96.804688 C 109.804688 98.574219 109.855469 100.34375 109.839844 102.113281 C 109.84375 106.5625 109.832031 111.011719 109.84375 115.464844 C 109.960938 116.261719 109.851562 117.070312 109.980469 117.867188 C 110.027344 118.363281 109.957031 118.867188 110.042969 119.363281 C 110.242188 121.425781 109.851562 123.472656 109.621094 125.511719 C 109.457031 126.648438 109.523438 127.796875 109.511719 128.941406 C 109.535156 131.296875 109.375 133.6875 108.632812 135.941406 C 108.414062 136.546875 108.089844 137.179688 108.257812 137.84375 C 108.375 139.386719 108.066406 140.929688 108.039062 142.472656 C 107.546875 143.03125 106.820312 143.269531 106.125 143.457031 C 105.4375 143.625 104.726562 143.8125 104.019531 143.6875 C 103.652344 143.480469 103.28125 143.277344 102.859375 143.226562 C 102.589844 143.296875 102.304688 143.335938 102.066406 143.484375 C 101.328125 143.933594 100.894531 144.757812 100.117188 145.152344 C 99.621094 145.410156 99.050781 145.445312 98.542969 145.660156 C 97.816406 146.003906 97 145.992188 96.226562 146.152344 C 95.699219 146.300781 95.164062 146.144531 94.628906 146.140625 C 93.121094 146.019531 91.710938 145.421875 90.253906 145.066406 C 90.261719 144.785156 90.292969 144.507812 90.382812 144.246094 C 90.554688 144.164062 90.730469 144.082031 90.902344 144.003906 C 90.941406 143.519531 91.121094 143.023438 91.539062 142.742188 C 92.136719 142.363281 92.804688 142.117188 93.417969 141.765625 C 93.757812 141.558594 93.976562 141.214844 94.289062 140.980469 C 94.660156 140.777344 95.097656 140.882812 95.5 140.867188 C 96.199219 140.4375 96.613281 139.707031 97.046875 139.039062 C 97.503906 138.15625 97.929688 137.164062 97.722656 136.148438 C 97.660156 135.121094 97.527344 134.101562 97.429688 133.078125 C 97.621094 132.925781 98.054688 132.914062 98.015625 132.597656 C 97.90625 130.542969 97.5 128.484375 97.757812 126.425781 C 97.820312 124.207031 98.300781 122.027344 98.371094 119.8125 C 98.496094 119.050781 98.359375 118.277344 98.472656 117.515625 C 98.570312 116.101562 98.402344 114.671875 98.566406 113.265625 C 98.394531 110.589844 97.90625 107.945312 97.382812 105.316406 C 97.183594 103.554688 96.699219 101.839844 96.523438 100.074219 C 96.328125 98.320312 96.28125 96.546875 95.988281 94.800781 C 95.621094 92.53125 95.449219 90.238281 95.175781 87.960938 C 95.078125 86.238281 95.378906 84.53125 95.554688 82.824219 C 95.660156 82.171875 95.605469 81.5 95.75 80.851562 C 95.773438 80.789062 95.824219 80.667969 95.847656 80.605469 C 95.21875 80.316406 94.523438 80.183594 93.886719 79.90625 C 93.628906 79.832031 93.363281 79.640625 93.089844 79.738281 C 93.183594 79.476562 93.214844 79.199219 93.253906 78.925781 C 93.875 73.910156 94.519531 68.898438 95.144531 63.886719 C 95.0625 63.554688 95.140625 63.171875 94.945312 62.878906 C 94.5 62.445312 93.980469 62.097656 93.46875 61.75 C 92.621094 61.160156 91.878906 60.4375 91.085938 59.785156 C 90.519531 59.351562 90.128906 58.746094 89.660156 58.21875 C 88.96875 57.335938 88.261719 56.457031 87.671875 55.503906 C 87.316406 54.90625 86.925781 54.304688 86.824219 53.605469 C 86.6875 52.957031 86.84375 52.304688 86.847656 51.65625 C 86.925781 49.59375 87.410156 47.570312 87.519531 45.507812 C 87.667969 43.933594 87.917969 42.371094 88.203125 40.816406 C 88.449219 39.554688 88.753906 38.304688 88.914062 37.027344 C 88.953125 36.585938 89.382812 36.300781 89.390625 35.851562 C 89.125 35.734375 88.6875 35.5 88.882812 35.148438 C 89.109375 34.890625 89.472656 34.785156 89.753906 34.585938 C 89.792969 34.449219 89.832031 34.3125 89.875 34.179688 C 89.714844 33.976562 89.542969 33.769531 89.464844 33.519531 C 89.367188 32.945312 89.660156 32.425781 89.765625 31.878906 C 90.113281 30.074219 90.503906 28.277344 91.015625 26.515625 C 91.230469 25.820312 91.289062 25.085938 91.542969 24.40625 C 91.707031 23.894531 92.199219 23.5625 92.695312 23.425781 C 94.234375 23.03125 95.820312 22.886719 97.371094 22.566406 C 98.6875 22.277344 100.046875 22.105469 101.28125 21.542969 C 102 21.230469 102.777344 20.96875 103.355469 20.417969 C 103.6875 20.054688 103.953125 19.628906 104.363281 19.347656 C 105.324219 18.660156 106.398438 18.164062 107.382812 17.515625 C 107.222656 18.042969 107.007812 18.546875 106.832031 19.066406 C 106.644531 19.648438 106.738281 20.292969 107.042969 20.820312 C 106.941406 21.535156 106.597656 22.199219 106.363281 22.882812 C 105.972656 23.902344 105.867188 25.007812 105.816406 26.089844 C 105.667969 27.003906 105.832031 27.921875 105.90625 28.832031 C 106.308594 31.320312 107.09375 33.773438 108.363281 35.960938 C 109.1875 37.472656 110.023438 39 111.121094 40.339844 C 111.160156 40.320312 111.238281 40.28125 111.277344 40.265625 L 111.132812 40.046875 C 111.15625 38.546875 111.117188 37.046875 111.152344 35.546875 C 111.304688 34.710938 111.140625 33.859375 111.285156 33.023438 C 111.347656 31.707031 111.378906 30.386719 111.484375 29.074219 C 111.761719 27.203125 112.589844 25.460938 112.757812 23.570312 C 112.542969 23.300781 112.296875 23.054688 112.054688 22.808594 C 111.773438 22.949219 111.492188 23.117188 111.324219 23.398438 C 110.847656 23.96875 110.527344 24.667969 109.964844 25.167969 C 110.199219 24.214844 110.757812 23.386719 111.113281 22.480469 C 111.570312 21.632812 111.847656 20.621094 112.683594 20.050781 C 112.140625 19.71875 111.542969 19.496094 110.976562 19.207031 C 109.984375 18.738281 108.914062 18.320312 108.121094 17.542969 C 108 17.054688 108.53125 16.984375 108.886719 17.03125 C 108.777344 17.125 108.671875 17.222656 108.570312 17.320312 C 108.691406 17.503906 108.832031 17.671875 108.964844 17.847656 C 109.710938 17.441406 110.460938 17.023438 111.285156 16.792969 " fill-opacity="1" fill-rule="nonzero"/></g></svg>