<svg xmlns="http://www.w3.org/2000/svg" xmlns:xlink="http://www.w3.org/1999/xlink" width="70" zoomAndPan="magnify" viewBox="0 0 52.5 52.499999" height="70" preserveAspectRatio="xMidYMid meet" version="1.0"><defs><clipPath id="1b0146218d"><path d="M 1.347656 8.402344 L 50.378906 8.402344 L 50.378906 43.320312 L 1.347656 43.320312 Z M 1.347656 8.402344 " clip-rule="nonzero"/></clipPath></defs><g clip-path="url(#1b0146218d)"><path fill="#f1ceda" d="M 6.644531 8.402344 C 3.730469 8.402344 1.363281 10.765625 1.363281 13.683594 C 1.429688 21.6875 1.367188 30.164062 1.363281 38.320312 C 1.363281 41.128906 3.550781 43.40625 6.316406 43.574219 L 45.582031 43.601562 C 48.394531 43.488281 50.640625 41.167969 50.640625 38.320312 L 50.640625 12.777344 C 50.210938 10.289062 48.050781 8.40625 45.441406 8.40625 C 32.515625 8.410156 19.574219 8.40625 6.644531 8.40625 Z M 6.5625 11.179688 L 45.609375 11.179688 L 26.71875 30.070312 C 26.371094 30.417969 25.824219 30.417969 25.480469 30.070312 Z M 48 12.527344 L 48 38.128906 C 48 39.652344 47.449219 40.515625 46.351562 40.824219 L 33.042969 27.488281 Z M 4.308594 12.636719 L 19.019531 27.351562 L 5.574219 40.796875 C 4.652344 40.484375 4.332031 39.742188 4.308594 38.734375 Z M 20.886719 29.191406 L 25.480469 33.8125 C 25.824219 34.15625 26.375 34.15625 26.71875 33.8125 L 31.171875 29.355469 L 42.777344 40.960938 L 9.121094 40.960938 L 20.890625 29.191406 Z M 20.886719 29.191406 " fill-opacity="1" fill-rule="nonzero"/></g></svg>