<svg xmlns="http://www.w3.org/2000/svg" xmlns:xlink="http://www.w3.org/1999/xlink" width="200" zoomAndPan="magnify" viewBox="0 0 150 149.999998" height="200" preserveAspectRatio="xMidYMid meet" version="1.0"><path fill="#ffe9c7" d="M 102.167969 124.519531 C 93.152344 121.527344 90.164062 122.382812 90.164062 122.382812 C 90.164062 122.382812 97.613281 104.765625 115.558594 108.03125 C 121.390625 109.09375 126.238281 112.542969 126.238281 112.542969 C 126.238281 112.542969 117.550781 129.632812 102.167969 124.519531 Z M 47.820312 124.519531 C 32.4375 129.632812 23.75 112.542969 23.75 112.542969 C 23.75 112.542969 28.597656 109.09375 34.429688 108.03125 C 52.375 104.765625 59.824219 122.382812 59.824219 122.382812 C 59.824219 122.382812 56.832031 121.527344 47.820312 124.519531 Z M 115.28125 97.160156 C 88.546875 97.160156 84.746094 112.484375 74.996094 113.507812 C 65.242188 112.484375 61.441406 97.160156 34.707031 97.160156 C 8.425781 97.160156 0.492188 88.582031 0.492188 88.582031 C 0.492188 88.582031 3.957031 93.839844 10.546875 119.566406 C 14.691406 135.738281 28.011719 138.949219 39.507812 138.949219 C 65.964844 138.949219 64.464844 127.117188 74.996094 126.199219 C 85.527344 127.117188 84.023438 138.949219 110.480469 138.949219 C 121.976562 138.949219 135.296875 135.738281 139.441406 119.566406 C 146.03125 93.839844 149.496094 88.582031 149.496094 88.582031 C 149.496094 88.582031 141.566406 97.160156 115.28125 97.160156 " fill-opacity="1" fill-rule="nonzero"/><path fill="#ffa5d6" d="M 121.265625 65.507812 C 119.347656 66.046875 117.472656 66.667969 115.644531 67.371094 C 114.414062 67.839844 113.207031 68.335938 112.019531 68.871094 C 115.109375 69.886719 118.042969 71.121094 120.796875 72.542969 C 124.214844 70.785156 127.652344 67.726562 127.136719 64.132812 C 126.136719 64.324219 125.152344 64.53125 124.175781 64.761719 C 123.195312 64.992188 122.226562 65.238281 121.265625 65.507812 " fill-opacity="1" fill-rule="nonzero"/><path fill="#ffa5d6" d="M 119.820312 72.988281 C 117.035156 71.582031 114.066406 70.363281 110.945312 69.371094 C 108.964844 70.304688 107.046875 71.328125 105.195312 72.4375 C 102.625 73.988281 100.167969 75.6875 97.851562 77.546875 C 101.359375 77.785156 104.742188 78.324219 107.960938 79.132812 C 111.347656 76.832031 115.027344 74.871094 118.960938 73.320312 C 119.246094 73.222656 119.535156 73.109375 119.820312 72.988281 " fill-opacity="1" fill-rule="nonzero"/><path fill="#ffa5d6" d="M 79.582031 100.667969 C 83.390625 99.070312 87.222656 97.945312 90.996094 97.253906 C 94.972656 90.457031 100.421875 84.457031 107.042969 79.769531 C 103.828125 78.996094 100.441406 78.492188 96.945312 78.285156 C 96.605469 78.570312 96.273438 78.855469 95.941406 79.140625 C 93.066406 81.621094 90.425781 84.347656 88.042969 87.285156 C 85.648438 90.207031 83.507812 93.34375 81.65625 96.65625 C 80.917969 97.964844 80.226562 99.304688 79.582031 100.667969 " fill-opacity="1" fill-rule="nonzero"/><path fill="#ffa5d6" d="M 99.660156 75.152344 C 101.324219 73.964844 103.050781 72.851562 104.835938 71.832031 C 108.195312 69.890625 111.765625 68.257812 115.488281 66.957031 C 117.359375 66.3125 119.265625 65.753906 121.207031 65.277344 C 122.175781 65.039062 123.15625 64.824219 124.144531 64.628906 C 125.136719 64.445312 126.132812 64.277344 127.136719 64.132812 C 126.570312 59.875 119.703125 58.328125 114.457031 60.207031 C 110.441406 61.414062 106.574219 62.96875 102.882812 64.832031 C 101.46875 68.28125 100.402344 71.738281 99.660156 75.152344 " fill-opacity="1" fill-rule="nonzero"/><path fill="#ffa5d6" d="M 76.277344 106.839844 C 77.417969 103.359375 78.882812 100.011719 80.597656 96.808594 C 79.625 92.902344 79.003906 88.773438 78.789062 84.472656 C 76.617188 87.210938 74.628906 90.109375 72.847656 93.15625 C 70.40625 97.582031 74.773438 105.9375 76.0625 107.496094 C 76.132812 107.273438 76.207031 107.054688 76.277344 106.839844 " fill-opacity="1" fill-rule="nonzero"/><path fill="#ffa5d6" d="M 79.085938 101.742188 C 78.296875 103.480469 77.589844 105.257812 76.945312 107.066406 C 76.875 107.28125 76.792969 107.496094 76.722656 107.710938 C 78.710938 106.804688 87.019531 104.558594 88.6875 101.613281 C 89.234375 100.457031 89.820312 99.324219 90.449219 98.207031 C 86.6875 98.9375 82.871094 100.109375 79.085938 101.742188 " fill-opacity="1" fill-rule="nonzero"/><path fill="#ffa5d6" d="M 98.699219 75.851562 C 99.347656 72.425781 100.316406 68.957031 101.628906 65.480469 C 96.730469 68.074219 92.15625 71.222656 87.988281 74.851562 C 87.4375 78.863281 87.265625 82.792969 87.445312 86.582031 C 89.847656 83.664062 92.5 80.957031 95.382812 78.492188 C 96.460938 77.582031 97.5625 76.699219 98.699219 75.851562 " fill-opacity="1" fill-rule="nonzero"/><path fill="#ffa5d6" d="M 86.703125 87.507812 C 86.421875 83.734375 86.484375 79.804688 86.929688 75.792969 C 84.347656 78.136719 81.929688 80.664062 79.695312 83.359375 C 79.789062 87.671875 80.300781 91.824219 81.171875 95.761719 C 82.800781 92.871094 84.65625 90.109375 86.703125 87.507812 " fill-opacity="1" fill-rule="nonzero"/><path fill="#ffe9c7" d="M 76.277344 106.839844 C 75.640625 108.761719 75.105469 111.984375 74.640625 119.851562 L 75.148438 120.265625 C 75.527344 114.113281 76.25 109.042969 76.945312 107.066406 C 78.226562 103.449219 79.789062 99.960938 81.65625 96.65625 C 83.507812 93.34375 85.648438 90.207031 88.042969 87.285156 C 90.425781 84.347656 93.066406 81.621094 95.941406 79.140625 C 98.804688 76.648438 101.90625 74.417969 105.195312 72.4375 C 111.777344 68.492188 119.15625 65.644531 127.136719 64.132812 C 119.089844 65.277344 111.558594 67.957031 104.835938 71.832031 C 101.46875 73.757812 98.316406 76.003906 95.382812 78.492188 C 92.460938 80.992188 89.765625 83.746094 87.339844 86.710938 C 84.921875 89.683594 82.765625 92.875 80.902344 96.238281 C 79.058594 99.609375 77.488281 103.152344 76.277344 106.839844 " fill-opacity="1" fill-rule="nonzero"/><path fill="#ffa5d6" d="M 58.824219 101.261719 C 62.207031 100.382812 65.644531 99.628906 69.132812 99.027344 C 69.964844 100.617188 70.746094 102.246094 71.464844 103.898438 C 71.421875 104.070312 65.613281 106.644531 58.824219 101.261719 " fill-opacity="1" fill-rule="nonzero"/><path fill="#ffa5d6" d="M 49.097656 91.09375 C 49.566406 90.472656 50.027344 89.855469 50.488281 89.230469 C 49.753906 89.519531 49.027344 89.816406 48.304688 90.121094 C 48.234375 90.039062 48.171875 89.960938 48.101562 89.882812 C 49.246094 88.667969 51.902344 85.796875 52.058594 85.640625 C 52.210938 85.476562 48.828125 87.914062 47.382812 89.027344 C 45.636719 87.011719 43.8125 85.179688 41.957031 83.484375 C 44.773438 80.980469 47.667969 78.550781 50.660156 76.210938 C 58.152344 82.429688 64.386719 90.078125 68.96875 98.710938 C 64.382812 98.167969 59.871094 98.054688 55.484375 98.335938 C 53.597656 96.464844 51.558594 94.089844 49.097656 91.09375 " fill-opacity="1" fill-rule="nonzero"/><path fill="#ffa5d6" d="M 30.433594 74.285156 C 33.648438 72.378906 37.082031 70.6875 40.703125 69.242188 C 44.144531 71.253906 47.402344 73.53125 50.453125 76.042969 C 46.859375 77.796875 43.421875 79.75 40.148438 81.878906 C 36.917969 79.097656 33.65625 76.671875 30.433594 74.285156 " fill-opacity="1" fill-rule="nonzero"/><path fill="#ffa5d6" d="M 18.132812 64.746094 C 19.082031 64.144531 20.050781 63.558594 21.042969 62.996094 C 19.484375 63.03125 17.929688 63.113281 16.386719 63.242188 C 15.082031 62.109375 13.746094 60.914062 12.371094 59.648438 C 22.496094 60.917969 31.933594 64.179688 40.308594 69.011719 C 36.195312 70.003906 32.292969 71.332031 28.636719 72.953125 C 25.148438 70.375 21.703125 67.761719 18.132812 64.746094 " fill-opacity="1" fill-rule="nonzero"/><path fill="#ffa5d6" d="M 69.183594 77.769531 C 72.480469 81.667969 74.429688 85.304688 75.523438 88.398438 C 73.898438 91.640625 72.109375 94.738281 70.175781 97.6875 C 72.355469 96.515625 74.535156 95.351562 76.71875 94.179688 C 76.921875 102.382812 71.363281 103.855469 71.464844 103.898438 C 69.234375 98.765625 66.433594 93.921875 63.144531 89.453125 C 65.371094 85.734375 67.386719 81.835938 69.183594 77.769531 " fill-opacity="1" fill-rule="nonzero"/><path fill="#ffa5d6" d="M 57.484375 67.257812 C 60.144531 69.203125 62.777344 71.382812 65.375 73.792969 C 64.96875 79.054688 64.070312 84.117188 62.742188 88.90625 C 60.070312 85.34375 57.085938 82.023438 53.820312 78.992188 C 55.25 75.199219 56.476562 71.28125 57.484375 67.257812 " fill-opacity="1" fill-rule="nonzero"/><path fill="#ffa5d6" d="M 21.851562 56.421875 C 27.015625 55.570312 32.4375 55.964844 37.875 57.4375 C 38.679688 58.785156 39.425781 60.136719 40.125 61.5 C 40.460938 60.484375 40.792969 59.460938 41.117188 58.445312 C 45.839844 60.085938 50.550781 62.511719 55.179688 65.640625 C 55.035156 70.1875 54.535156 74.617188 53.710938 78.890625 C 45.46875 71.253906 35.460938 65.441406 24.304688 62.140625 C 23.578125 60.226562 22.761719 58.320312 21.851562 56.421875 " fill-opacity="1" fill-rule="nonzero"/><path fill="#ffa5d6" d="M 20.054688 56.773438 C 21.59375 58.523438 23.007812 60.316406 24.304688 62.140625 C 20.457031 61 16.46875 60.160156 12.371094 59.648438 C 14.8125 58.324219 17.390625 57.375 20.054688 56.773438 " fill-opacity="1" fill-rule="nonzero"/><path fill="#ffe9c7" d="M 72.976562 106.699219 C 75.050781 112.738281 74.34375 117.714844 74.902344 119.703125 L 74.433594 120.113281 C 73.820312 118.070312 74.640625 112.597656 72.351562 106.941406 C 70.683594 102.824219 68.75 98.847656 66.449219 95.109375 C 64.160156 91.363281 61.546875 87.832031 58.644531 84.554688 C 55.753906 81.269531 52.574219 78.238281 49.140625 75.503906 C 45.710938 72.753906 42.023438 70.3125 38.125 68.179688 C 34.230469 66.058594 30.113281 64.253906 25.8125 62.824219 C 23.660156 62.101562 21.464844 61.472656 19.21875 60.945312 C 18.097656 60.679688 16.96875 60.441406 15.824219 60.226562 C 14.683594 60.007812 13.535156 59.8125 12.371094 59.648438 C 13.539062 59.773438 14.699219 59.921875 15.847656 60.097656 C 17 60.28125 18.140625 60.492188 19.269531 60.722656 C 21.53125 61.191406 23.757812 61.757812 25.9375 62.421875 C 30.296875 63.769531 34.484375 65.5 38.445312 67.59375 C 42.414062 69.671875 46.152344 72.125 49.644531 74.863281 C 53.128906 77.617188 56.355469 80.671875 59.289062 83.984375 C 62.214844 87.308594 64.847656 90.886719 67.144531 94.683594 C 69.433594 98.492188 71.523438 102.460938 72.976562 106.699219 " fill-opacity="1" fill-rule="nonzero"/><path fill="#fdc7e4" d="M 64.761719 92.371094 C 69.125 94.039062 73.445312 95.898438 77.707031 97.945312 C 77.378906 100.324219 76.960938 102.699219 76.460938 105.0625 C 76.277344 105.207031 67.964844 103.496094 64.761719 92.371094 " fill-opacity="1" fill-rule="nonzero"/><path fill="#fdc7e4" d="M 62.085938 73.757812 C 63.074219 73.449219 64.0625 73.132812 65.042969 72.8125 C 64.023438 72.554688 63 72.3125 61.976562 72.085938 C 61.964844 71.945312 61.957031 71.804688 61.945312 71.667969 C 64.128906 71.234375 69.25 70.175781 69.539062 70.128906 C 69.835938 70.070312 64.261719 70.09375 61.820312 70.179688 C 61.492188 66.632812 60.929688 63.226562 60.234375 59.941406 C 65.238281 59.398438 70.277344 59.011719 75.339844 58.789062 C 78.660156 71.375 79.5 84.53125 77.769531 97.476562 C 73.210938 93.328125 68.394531 89.695312 63.40625 86.59375 C 62.808594 83.09375 62.429688 78.925781 62.085938 73.757812 " fill-opacity="1" fill-rule="nonzero"/><path fill="#fdc7e4" d="M 54.847656 40.984375 C 59.824219 41.410156 64.875 42.238281 69.933594 43.480469 C 72.113281 48.339844 73.886719 53.347656 75.25 58.453125 C 69.980469 57.566406 64.726562 57.015625 59.515625 56.792969 C 58.164062 51.257812 56.496094 46.082031 54.847656 40.984375 " fill-opacity="1" fill-rule="nonzero"/><path fill="#fdc7e4" d="M 48.890625 21.058594 C 50.386719 21.144531 51.894531 21.261719 53.40625 21.421875 C 51.6875 20.246094 49.933594 19.128906 48.152344 18.074219 C 47.613281 15.820312 47.089844 13.488281 46.578125 11.039062 C 56.597656 20.285156 64.332031 31.164062 69.679688 42.921875 C 64.441406 40.808594 59.160156 39.21875 53.929688 38.144531 C 52.140625 32.628906 50.421875 27.117188 48.890625 21.058594 " fill-opacity="1" fill-rule="nonzero"/><path fill="#fdc7e4" d="M 94.273438 74.875 C 94.832031 81.671875 94.121094 87.144531 92.910156 91.355469 C 88.625 93.613281 84.273438 95.59375 79.878906 97.292969 C 83.160156 97.71875 86.4375 98.144531 89.71875 98.566406 C 83.570312 107.648438 76.378906 104.933594 76.460938 105.0625 C 78.015625 97.738281 78.738281 90.300781 78.636719 82.890625 C 83.941406 80.574219 89.164062 77.898438 94.273438 74.875 " fill-opacity="1" fill-rule="nonzero"/><path fill="#fdc7e4" d="M 89.71875 54.355469 C 91.101562 58.539062 92.269531 62.953125 93.21875 67.59375 C 88.6875 72.996094 83.78125 77.800781 78.617188 81.972656 C 78.480469 76.027344 77.8125 70.101562 76.625 64.273438 C 81.121094 61.257812 85.496094 57.945312 89.71875 54.355469 " fill-opacity="1" fill-rule="nonzero"/><path fill="#fdc7e4" d="M 59.394531 14.898438 C 65.671875 17.980469 71.261719 22.625 76.027344 28.449219 C 75.851562 30.535156 75.613281 32.59375 75.3125 34.613281 C 76.472656 33.769531 77.621094 32.917969 78.773438 32.0625 C 82.628906 37.515625 85.867188 43.8125 88.472656 50.808594 C 84.777344 55.636719 80.796875 60.066406 76.578125 64.074219 C 73.546875 49.367188 67.183594 35.277344 57.617188 23.023438 C 58.316406 20.378906 58.90625 17.667969 59.394531 14.898438 " fill-opacity="1" fill-rule="nonzero"/><path fill="#fdc7e4" d="M 57.167969 13.886719 C 57.480469 16.984375 57.625 20.03125 57.617188 23.019531 C 54.320312 18.792969 50.636719 14.78125 46.578125 11.039062 C 50.261719 11.5 53.808594 12.472656 57.167969 13.886719 " fill-opacity="1" fill-rule="nonzero"/><path fill="#ffe9c7" d="M 75.929688 109.273438 C 75.226562 111.917969 74.40625 114.542969 73.472656 117.136719 L 72.636719 117.226562 C 73.558594 114.519531 74.367188 111.792969 75.058594 109.046875 C 76.488281 103.292969 77.429688 97.457031 77.832031 91.601562 C 78.253906 85.75 78.152344 79.878906 77.542969 74.0625 C 76.949219 68.25 75.847656 62.480469 74.238281 56.835938 C 72.648438 51.1875 70.535156 45.671875 67.953125 40.328125 C 65.363281 34.988281 62.289062 29.835938 58.726562 24.933594 C 56.945312 22.480469 55.042969 20.085938 53.015625 17.773438 C 52.007812 16.613281 50.960938 15.476562 49.882812 14.355469 C 48.816406 13.230469 47.714844 12.125 46.578125 11.039062 C 47.753906 12.082031 48.894531 13.148438 50.007812 14.234375 C 51.117188 15.324219 52.195312 16.4375 53.246094 17.570312 C 55.339844 19.835938 57.316406 22.179688 59.171875 24.597656 C 62.871094 29.445312 66.074219 34.578125 68.757812 39.929688 C 71.453125 45.277344 73.617188 50.84375 75.28125 56.539062 C 76.929688 62.234375 78.070312 68.0625 78.6875 73.945312 C 79.285156 79.832031 79.367188 85.769531 78.917969 91.683594 C 78.449219 97.59375 77.476562 103.488281 75.929688 109.273438 " fill-opacity="1" fill-rule="nonzero"/><path fill="#ffa5d6" d="M 72.5625 117.746094 C 72.5625 117.746094 70.675781 119.808594 69.292969 118.933594 C 67.421875 117.75 69.347656 115.792969 70.066406 115.902344 C 70.066406 115.902344 67.753906 116.050781 67.695312 117.972656 C 67.625 120.230469 70.992188 121.464844 73.339844 119.039062 C 73.339844 119.039062 73.511719 116.941406 72.5625 117.746094 " fill-opacity="1" fill-rule="nonzero"/><path fill="#ffe9c7" d="M 76.960938 117.746094 C 76.960938 117.746094 78.511719 121.367188 81.355469 118.195312 C 81.355469 118.195312 79.710938 122.390625 76.191406 119.039062 C 76.191406 119.039062 76.015625 116.941406 76.960938 117.746094 " fill-opacity="1" fill-rule="nonzero"/><path fill="#fdc7e4" d="M 75.015625 118.132812 L 73.355469 117.386719 C 73.355469 117.386719 74.230469 120.023438 70.355469 125.09375 C 70.355469 125.09375 75.546875 121.476562 75.015625 118.132812 " fill-opacity="1" fill-rule="nonzero"/><path fill="#fdc7e4" d="M 75.015625 118.132812 L 76.175781 117.964844 C 76.175781 117.964844 75.371094 120.257812 77.515625 123.1875 C 77.515625 123.1875 74.488281 121.476562 75.015625 118.132812 " fill-opacity="1" fill-rule="nonzero"/><path fill="#ffa5d6" d="M 77.679688 117.410156 C 77.679688 119.019531 76.371094 120.324219 74.765625 120.324219 C 73.15625 120.324219 71.851562 119.019531 71.851562 117.410156 C 71.851562 115.796875 73.15625 114.496094 74.765625 114.496094 C 76.371094 114.496094 77.679688 115.796875 77.679688 117.410156 " fill-opacity="1" fill-rule="nonzero"/></svg>