<svg xmlns="http://www.w3.org/2000/svg" xmlns:xlink="http://www.w3.org/1999/xlink" width="200" zoomAndPan="magnify" viewBox="0 0 150 30.000001" height="40" preserveAspectRatio="xMidYMid meet" version="1.0"><defs><clipPath id="32031fcdb5"><path d="M 33.660156 0 L 116.402344 0 L 116.402344 29.03125 L 33.660156 29.03125 Z M 33.660156 0 " clip-rule="nonzero"/></clipPath></defs><g clip-path="url(#32031fcdb5)"><path fill="#ffe9c7" d="M 116.71875 12.824219 C 116.152344 12.824219 115.675781 13.195312 115.523438 13.710938 L 100.820312 12.460938 L 100.78125 12.460938 C 99.339844 12.460938 98.167969 11.292969 98.167969 9.863281 C 98.167969 9.617188 97.960938 9.410156 97.714844 9.410156 C 97.472656 9.410156 97.265625 9.617188 97.265625 9.863281 C 97.265625 10.234375 96.53125 10.90625 94.484375 11.601562 C 93.289062 12 91.960938 12.28125 91.046875 12.410156 C 91.265625 11.984375 91.394531 11.511719 91.394531 10.996094 C 91.394531 10.96875 91.394531 10.945312 91.382812 10.917969 L 91.382812 10.878906 C 91.355469 10.25 91.085938 9.65625 90.621094 9.21875 C 90.160156 8.78125 89.554688 8.5625 88.910156 8.585938 C 88.382812 8.613281 87.878906 8.832031 87.519531 9.21875 C 87.160156 9.605469 86.964844 10.121094 86.992188 10.648438 C 87.003906 11.097656 87.199219 11.511719 87.53125 11.820312 C 87.839844 12.113281 88.253906 12.269531 88.679688 12.269531 L 88.742188 12.269531 C 89.128906 12.257812 89.476562 12.089844 89.746094 11.804688 C 90.003906 11.523438 90.144531 11.164062 90.132812 10.777344 C 90.121094 10.53125 89.914062 10.339844 89.667969 10.339844 C 89.425781 10.351562 89.230469 10.558594 89.230469 10.800781 C 89.230469 10.945312 89.179688 11.085938 89.089844 11.1875 C 89 11.292969 88.859375 11.355469 88.71875 11.355469 C 88.511719 11.367188 88.304688 11.292969 88.152344 11.148438 C 87.996094 11.007812 87.90625 10.816406 87.90625 10.609375 C 87.894531 10.3125 87.996094 10.042969 88.203125 9.824219 C 88.394531 9.605469 88.664062 9.488281 88.960938 9.476562 C 89.359375 9.464844 89.734375 9.605469 90.03125 9.875 C 90.328125 10.144531 90.492188 10.503906 90.507812 10.90625 C 90.507812 10.917969 90.507812 10.945312 90.519531 10.957031 L 90.519531 10.980469 C 90.519531 12.191406 89.527344 13.183594 88.316406 13.183594 C 88.292969 13.183594 88.265625 13.183594 88.242188 13.195312 L 88.1875 13.195312 C 86.167969 13.195312 84.507812 11.652344 84.3125 9.695312 C 84.789062 9.515625 85.125 9.050781 85.125 8.523438 C 85.125 7.828125 84.558594 7.261719 83.863281 7.261719 C 83.167969 7.261719 82.601562 7.828125 82.601562 8.523438 C 82.601562 9.039062 82.910156 9.476562 83.347656 9.667969 C 83.207031 10.542969 82.574219 11.511719 81.6875 12.269531 C 81.75 12.101562 81.789062 11.960938 81.816406 11.859375 C 81.90625 11.484375 81.84375 11.097656 81.636719 10.777344 C 81.429688 10.453125 81.121094 10.222656 80.746094 10.144531 C 80.089844 9.992188 79.421875 10.402344 79.265625 11.070312 C 79.203125 11.355469 79.253906 11.640625 79.394531 11.882812 C 79.550781 12.128906 79.78125 12.296875 80.066406 12.359375 C 80.308594 12.410156 80.554688 12.269531 80.605469 12.023438 C 80.65625 11.78125 80.515625 11.535156 80.269531 11.484375 C 80.207031 11.472656 80.179688 11.433594 80.167969 11.40625 C 80.15625 11.382812 80.128906 11.34375 80.140625 11.277344 C 80.179688 11.097656 80.363281 10.996094 80.542969 11.035156 C 80.683594 11.058594 80.800781 11.148438 80.863281 11.265625 C 80.941406 11.382812 80.964844 11.523438 80.929688 11.664062 C 80.773438 12.347656 80.285156 13.441406 78.753906 13.609375 L 78.714844 13.609375 C 78.6875 13.054688 78.457031 12.539062 78.070312 12.140625 C 77.644531 11.730469 77.089844 11.496094 76.5 11.496094 C 76.421875 11.496094 76.332031 11.496094 76.253906 11.511719 C 76.242188 10.722656 76.304688 10.132812 76.421875 9.683594 C 76.730469 9.992188 77.078125 10.144531 77.464844 10.144531 C 77.902344 10.171875 78.753906 10.003906 78.933594 9.140625 C 78.945312 9.078125 79.074219 8.445312 78.726562 7.945312 C 78.585938 7.75 78.328125 7.507812 77.851562 7.429688 C 77.695312 7.402344 77.066406 7.3125 76.460938 7.816406 C 76.433594 7.828125 76.421875 7.855469 76.410156 7.867188 C 76.214844 7.363281 76.046875 6.734375 75.90625 5.988281 C 75.570312 4.324219 75.46875 2.625 75.46875 2.433594 C 75.933594 2.253906 76.265625 1.789062 76.265625 1.261719 C 76.265625 0.566406 75.699219 0 75.003906 0 C 74.308594 0 73.742188 0.566406 73.742188 1.261719 C 73.742188 1.789062 74.078125 2.253906 74.542969 2.433594 C 74.53125 2.640625 74.425781 4.3125 74.105469 5.972656 C 73.960938 6.71875 73.78125 7.351562 73.601562 7.855469 L 73.550781 7.800781 C 72.945312 7.300781 72.316406 7.390625 72.160156 7.414062 C 71.683594 7.480469 71.414062 7.738281 71.285156 7.929688 C 70.9375 8.421875 71.054688 9.050781 71.078125 9.128906 C 71.257812 9.992188 72.109375 10.15625 72.546875 10.132812 C 72.933594 10.132812 73.28125 9.976562 73.589844 9.667969 C 73.691406 10.105469 73.757812 10.699219 73.757812 11.496094 C 73.679688 11.484375 73.589844 11.484375 73.511719 11.484375 C 72.921875 11.484375 72.367188 11.714844 71.941406 12.128906 C 71.53125 12.527344 71.3125 13.066406 71.285156 13.632812 C 69.792969 13.453125 69.300781 12.371094 69.148438 11.703125 C 69.121094 11.5625 69.136719 11.417969 69.210938 11.304688 C 69.289062 11.1875 69.40625 11.097656 69.535156 11.070312 C 69.714844 11.035156 69.894531 11.136719 69.933594 11.316406 C 69.945312 11.382812 69.921875 11.417969 69.90625 11.445312 C 69.894531 11.472656 69.855469 11.511719 69.804688 11.523438 C 69.558594 11.574219 69.40625 11.820312 69.46875 12.0625 C 69.519531 12.308594 69.765625 12.460938 70.011719 12.398438 C 70.292969 12.332031 70.523438 12.167969 70.679688 11.921875 C 70.835938 11.675781 70.886719 11.394531 70.808594 11.109375 C 70.652344 10.453125 69.996094 10.03125 69.328125 10.183594 C 68.953125 10.273438 68.644531 10.492188 68.441406 10.816406 C 68.234375 11.136719 68.167969 11.523438 68.257812 11.894531 C 68.285156 12 68.324219 12.140625 68.386719 12.308594 C 67.488281 11.535156 66.855469 10.558594 66.726562 9.667969 C 67.164062 9.476562 67.472656 9.039062 67.472656 8.523438 C 67.472656 7.828125 66.90625 7.261719 66.210938 7.261719 C 65.515625 7.261719 64.949219 7.828125 64.949219 8.523438 C 64.949219 9.0625 65.296875 9.527344 65.773438 9.695312 C 65.605469 11.675781 63.933594 13.246094 61.898438 13.246094 L 61.847656 13.246094 C 61.820312 13.246094 61.796875 13.234375 61.769531 13.234375 C 60.558594 13.234375 59.570312 12.242188 59.570312 11.035156 L 59.570312 11.007812 C 59.570312 10.996094 59.582031 10.96875 59.582031 10.957031 C 59.609375 10.144531 60.304688 9.5 61.113281 9.527344 C 61.71875 9.554688 62.195312 10.054688 62.167969 10.660156 C 62.15625 11.097656 61.785156 11.433594 61.359375 11.417969 C 61.21875 11.417969 61.089844 11.355469 60.984375 11.253906 C 60.882812 11.148438 60.832031 11.007812 60.84375 10.867188 C 60.855469 10.621094 60.664062 10.402344 60.40625 10.402344 C 60.160156 10.390625 59.941406 10.582031 59.941406 10.839844 C 59.929688 11.226562 60.058594 11.585938 60.328125 11.871094 C 60.585938 12.152344 60.945312 12.320312 61.332031 12.332031 L 61.398438 12.332031 C 61.820312 12.332031 62.234375 12.179688 62.542969 11.882812 C 62.878906 11.574219 63.058594 11.164062 63.082031 10.710938 C 63.121094 9.617188 62.261719 8.691406 61.164062 8.640625 C 59.851562 8.585938 58.746094 9.617188 58.695312 10.929688 L 58.695312 10.96875 C 58.695312 10.996094 58.679688 11.019531 58.679688 11.046875 C 58.679688 11.5625 58.808594 12.039062 59.027344 12.460938 C 58.113281 12.347656 56.789062 12.050781 55.589844 11.652344 C 53.53125 10.96875 52.808594 10.285156 52.808594 9.914062 C 52.808594 9.667969 52.605469 9.464844 52.359375 9.464844 C 52.113281 9.464844 51.910156 9.667969 51.910156 9.914062 C 51.910156 11.355469 50.738281 12.515625 49.296875 12.515625 L 49.257812 12.515625 L 34.464844 13.582031 C 34.257812 13.171875 33.832031 12.886719 33.34375 12.886719 C 32.648438 12.886719 32.082031 13.453125 32.082031 14.148438 C 32.082031 14.84375 32.648438 15.410156 33.34375 15.410156 C 33.910156 15.410156 34.386719 15.039062 34.542969 14.523438 L 49.242188 15.769531 L 49.28125 15.769531 C 50.722656 15.769531 51.894531 16.941406 51.894531 18.371094 C 51.894531 18.617188 52.101562 18.824219 52.347656 18.824219 C 52.589844 18.824219 52.796875 18.617188 52.796875 18.371094 C 52.796875 18 53.53125 17.328125 55.578125 16.632812 C 56.777344 16.234375 58.101562 15.953125 59.015625 15.824219 C 58.796875 16.246094 58.667969 16.722656 58.667969 17.238281 C 58.667969 17.265625 58.667969 17.289062 58.679688 17.316406 L 58.679688 17.355469 C 58.707031 17.984375 58.976562 18.578125 59.441406 19.015625 C 59.878906 19.429688 60.457031 19.648438 61.0625 19.648438 L 61.152344 19.648438 C 61.679688 19.621094 62.183594 19.402344 62.542969 19.015625 C 62.902344 18.628906 63.097656 18.113281 63.070312 17.585938 C 63.058594 17.136719 62.863281 16.722656 62.53125 16.414062 C 62.195312 16.105469 61.769531 15.953125 61.320312 15.964844 C 60.933594 15.976562 60.585938 16.144531 60.316406 16.429688 C 60.046875 16.710938 59.917969 17.070312 59.929688 17.457031 C 59.941406 17.703125 60.148438 17.894531 60.394531 17.894531 C 60.636719 17.882812 60.832031 17.675781 60.832031 17.433594 C 60.832031 17.289062 60.882812 17.148438 60.972656 17.046875 C 61.074219 16.941406 61.203125 16.878906 61.347656 16.878906 C 61.550781 16.867188 61.757812 16.941406 61.914062 17.085938 C 62.066406 17.226562 62.15625 17.417969 62.15625 17.625 C 62.167969 17.921875 62.066406 18.191406 61.859375 18.410156 C 61.65625 18.628906 61.398438 18.746094 61.101562 18.757812 C 60.289062 18.796875 59.59375 18.152344 59.570312 17.328125 C 59.570312 17.316406 59.570312 17.289062 59.554688 17.277344 L 59.554688 17.25 C 59.554688 16.042969 60.546875 15.050781 61.757812 15.050781 C 61.785156 15.050781 61.808594 15.050781 61.835938 15.039062 L 61.886719 15.039062 C 63.90625 15.039062 65.570312 16.582031 65.761719 18.539062 C 65.285156 18.71875 64.949219 19.183594 64.949219 19.710938 C 64.949219 20.40625 65.515625 20.972656 66.210938 20.972656 C 66.90625 20.972656 67.472656 20.40625 67.472656 19.710938 C 67.472656 19.195312 67.164062 18.757812 66.726562 18.566406 C 66.867188 17.691406 67.5 16.722656 68.386719 15.964844 C 68.324219 16.132812 68.285156 16.273438 68.257812 16.375 C 68.167969 16.75 68.234375 17.136719 68.441406 17.457031 C 68.644531 17.78125 68.953125 18.011719 69.328125 18.089844 C 69.417969 18.113281 69.507812 18.113281 69.609375 18.113281 C 70.164062 18.113281 70.679688 17.726562 70.808594 17.160156 C 70.871094 16.878906 70.820312 16.59375 70.679688 16.351562 C 70.523438 16.105469 70.292969 15.9375 70.011719 15.875 C 69.765625 15.824219 69.519531 15.964844 69.46875 16.210938 C 69.417969 16.453125 69.558594 16.699219 69.804688 16.75 C 69.867188 16.761719 69.894531 16.800781 69.90625 16.828125 C 69.921875 16.851562 69.945312 16.890625 69.933594 16.957031 C 69.894531 17.136719 69.714844 17.238281 69.535156 17.199219 C 69.390625 17.175781 69.277344 17.085938 69.210938 16.96875 C 69.148438 16.851562 69.109375 16.710938 69.148438 16.570312 C 69.300781 15.886719 69.792969 14.792969 71.324219 14.625 C 71.363281 14.625 71.414062 14.613281 71.453125 14.613281 L 71.503906 14.613281 C 71.605469 14.832031 71.761719 15.050781 71.941406 15.230469 L 73.757812 17.019531 C 73.742188 17.058594 73.742188 17.097656 73.742188 17.136719 C 73.796875 18.179688 73.71875 18.914062 73.589844 19.441406 C 73.28125 19.132812 72.933594 18.976562 72.546875 18.976562 C 72.109375 18.953125 71.257812 19.117188 71.078125 19.980469 C 71.066406 20.046875 70.9375 20.675781 71.285156 21.179688 C 71.425781 21.371094 71.683594 21.617188 72.160156 21.695312 C 72.316406 21.71875 72.945312 21.808594 73.550781 21.308594 L 73.601562 21.257812 C 73.796875 21.757812 73.960938 22.390625 74.105469 23.136719 C 74.402344 24.640625 74.515625 26.175781 74.542969 26.585938 C 74.078125 26.765625 73.742188 27.230469 73.742188 27.757812 C 73.742188 28.453125 74.308594 29.019531 75.003906 29.019531 C 75.699219 29.019531 76.265625 28.453125 76.265625 27.757812 C 76.265625 27.230469 75.945312 26.777344 75.480469 26.585938 C 75.507812 26.175781 75.625 24.640625 75.917969 23.121094 C 76.0625 22.375 76.242188 21.746094 76.421875 21.242188 L 76.472656 21.292969 C 77.078125 21.796875 77.710938 21.707031 77.863281 21.679688 C 78.339844 21.617188 78.609375 21.359375 78.738281 21.164062 C 79.085938 20.675781 78.972656 20.046875 78.945312 19.96875 C 78.765625 19.105469 77.914062 18.9375 77.476562 18.964844 C 77.089844 18.964844 76.742188 19.117188 76.433594 19.425781 C 76.304688 18.898438 76.230469 18.167969 76.28125 17.125 C 76.28125 17.085938 76.28125 17.046875 76.265625 17.007812 L 78.082031 15.21875 C 78.277344 15.023438 78.429688 14.792969 78.546875 14.546875 L 78.660156 14.546875 C 78.699219 14.546875 78.738281 14.5625 78.777344 14.5625 C 80.308594 14.730469 80.800781 15.824219 80.953125 16.503906 C 80.980469 16.648438 80.964844 16.789062 80.890625 16.90625 C 80.8125 17.019531 80.695312 17.109375 80.566406 17.136719 C 80.386719 17.175781 80.207031 17.070312 80.167969 16.890625 C 80.15625 16.828125 80.179688 16.789062 80.195312 16.761719 C 80.207031 16.738281 80.246094 16.699219 80.296875 16.683594 C 80.542969 16.632812 80.695312 16.390625 80.632812 16.144531 C 80.582031 15.898438 80.335938 15.746094 80.089844 15.808594 C 79.808594 15.875 79.574219 16.042969 79.421875 16.285156 C 79.265625 16.53125 79.214844 16.8125 79.292969 17.097656 C 79.421875 17.664062 79.9375 18.050781 80.488281 18.050781 C 80.582031 18.050781 80.671875 18.039062 80.773438 18.023438 C 81.148438 17.933594 81.457031 17.714844 81.660156 17.394531 C 81.867188 17.070312 81.933594 16.683594 81.84375 16.3125 C 81.816406 16.210938 81.777344 16.066406 81.714844 15.898438 C 82.613281 16.671875 83.246094 17.652344 83.375 18.539062 C 82.9375 18.734375 82.628906 19.171875 82.628906 19.683594 C 82.628906 20.378906 83.195312 20.945312 83.890625 20.945312 C 84.585938 20.945312 85.152344 20.378906 85.152344 19.683594 C 85.152344 19.144531 84.804688 18.679688 84.328125 18.511719 C 84.492188 16.53125 86.167969 14.960938 88.203125 14.960938 L 88.253906 14.960938 C 88.277344 14.960938 88.304688 14.972656 88.332031 14.972656 C 89.539062 14.972656 90.53125 15.964844 90.53125 17.175781 L 90.53125 17.199219 C 90.53125 17.214844 90.519531 17.238281 90.519531 17.253906 C 90.507812 17.652344 90.339844 18.011719 90.042969 18.28125 C 89.746094 18.550781 89.375 18.695312 88.972656 18.679688 C 88.371094 18.65625 87.894531 18.152344 87.917969 17.546875 C 87.929688 17.109375 88.292969 16.777344 88.730469 16.789062 C 88.871094 16.789062 89 16.851562 89.101562 16.957031 C 89.207031 17.058594 89.257812 17.199219 89.246094 17.34375 C 89.230469 17.585938 89.425781 17.804688 89.683594 17.804688 C 89.941406 17.820312 90.144531 17.625 90.144531 17.367188 C 90.160156 16.980469 90.03125 16.621094 89.757812 16.335938 C 89.503906 16.054688 89.140625 15.886719 88.753906 15.875 C 87.828125 15.835938 87.042969 16.570312 87.003906 17.496094 C 86.980469 18.023438 87.171875 18.539062 87.53125 18.925781 C 87.894531 19.3125 88.382812 19.542969 88.921875 19.554688 L 89.011719 19.554688 C 89.617188 19.554688 90.183594 19.335938 90.636719 18.925781 C 91.097656 18.488281 91.367188 17.910156 91.394531 17.265625 L 91.394531 17.226562 C 91.394531 17.199219 91.40625 17.175781 91.40625 17.148438 C 91.40625 16.632812 91.277344 16.15625 91.058594 15.734375 C 91.972656 15.847656 93.300781 16.144531 94.496094 16.542969 C 96.558594 17.226562 97.277344 17.910156 97.277344 18.28125 C 97.277344 18.527344 97.484375 18.734375 97.730469 18.734375 C 97.972656 18.734375 98.179688 18.527344 98.179688 18.28125 C 98.179688 16.839844 99.351562 15.679688 100.792969 15.679688 L 100.832031 15.679688 L 115.625 14.613281 C 115.832031 15.023438 116.253906 15.308594 116.746094 15.308594 C 117.441406 15.308594 118.007812 14.742188 118.007812 14.046875 C 118.007812 13.351562 117.414062 12.824219 116.71875 12.824219 Z M 76.976562 8.511719 C 77.296875 8.238281 77.621094 8.292969 77.621094 8.304688 C 77.632812 8.304688 77.644531 8.316406 77.671875 8.316406 C 77.851562 8.34375 77.914062 8.40625 77.953125 8.457031 C 78.058594 8.601562 78.042969 8.871094 78.019531 8.949219 C 77.953125 9.257812 77.554688 9.242188 77.492188 9.242188 L 77.453125 9.242188 C 77.21875 9.242188 77 9.0625 76.78125 8.742188 C 76.847656 8.625 76.925781 8.5625 76.976562 8.511719 Z M 72.457031 9.230469 L 72.417969 9.230469 C 72.339844 9.230469 71.953125 9.242188 71.878906 8.933594 C 71.863281 8.859375 71.839844 8.585938 71.941406 8.445312 C 71.980469 8.394531 72.042969 8.328125 72.226562 8.304688 C 72.238281 8.304688 72.25 8.304688 72.261719 8.292969 C 72.261719 8.292969 72.300781 8.277344 72.367188 8.277344 C 72.480469 8.277344 72.699219 8.304688 72.921875 8.496094 C 72.984375 8.546875 73.046875 8.613281 73.113281 8.714844 C 72.90625 9.050781 72.6875 9.230469 72.457031 9.230469 Z M 72.933594 20.613281 C 72.609375 20.882812 72.289062 20.832031 72.289062 20.816406 C 72.277344 20.816406 72.261719 20.804688 72.238281 20.804688 C 72.058594 20.78125 71.992188 20.714844 71.953125 20.664062 C 71.851562 20.523438 71.863281 20.25 71.890625 20.175781 C 71.941406 19.902344 72.25 19.878906 72.378906 19.878906 L 72.457031 19.878906 C 72.6875 19.878906 72.90625 20.058594 73.125 20.378906 C 73.0625 20.496094 72.996094 20.5625 72.933594 20.613281 Z M 77.453125 19.890625 L 77.492188 19.890625 C 77.503906 19.890625 77.953125 19.851562 78.019531 20.1875 C 78.03125 20.265625 78.058594 20.535156 77.953125 20.675781 C 77.914062 20.726562 77.851562 20.792969 77.671875 20.816406 C 77.65625 20.816406 77.644531 20.816406 77.621094 20.832031 C 77.621094 20.832031 77.308594 20.894531 76.988281 20.636719 C 76.925781 20.585938 76.847656 20.507812 76.78125 20.40625 C 77 20.070312 77.21875 19.890625 77.453125 19.890625 Z M 83.835938 8.148438 C 84.03125 8.148438 84.199219 8.304688 84.199219 8.511719 C 84.199219 8.675781 84.082031 8.820312 83.914062 8.859375 C 83.890625 8.84375 83.851562 8.84375 83.8125 8.84375 C 83.773438 8.84375 83.8125 8.84375 83.8125 8.84375 L 83.746094 8.84375 C 83.59375 8.804688 83.476562 8.664062 83.476562 8.496094 C 83.476562 8.304688 83.644531 8.148438 83.835938 8.148438 Z M 74.953125 0.902344 C 75.148438 0.902344 75.316406 1.054688 75.316406 1.261719 C 75.316406 1.46875 75.160156 1.621094 74.953125 1.621094 C 74.761719 1.621094 74.59375 1.46875 74.59375 1.261719 C 74.59375 1.054688 74.75 0.902344 74.953125 0.902344 Z M 74.15625 8.714844 C 74.464844 8.074219 74.722656 7.222656 74.941406 6.140625 C 74.941406 6.117188 74.953125 6.078125 74.953125 6.050781 C 74.953125 6.078125 74.96875 6.117188 74.96875 6.140625 C 75.1875 7.222656 75.445312 8.085938 75.753906 8.714844 C 75.429688 9.449219 75.289062 10.480469 75.328125 11.78125 C 75.199219 11.859375 75.082031 11.949219 74.96875 12.039062 L 74.953125 12.050781 L 74.941406 12.039062 C 74.824219 11.933594 74.710938 11.84375 74.582031 11.78125 C 74.621094 10.480469 74.476562 9.464844 74.15625 8.714844 Z M 66.160156 8.148438 C 66.355469 8.148438 66.519531 8.304688 66.519531 8.511719 C 66.519531 8.714844 66.367188 8.871094 66.160156 8.871094 C 65.953125 8.871094 65.800781 8.714844 65.800781 8.511719 C 65.800781 8.304688 65.953125 8.148438 66.160156 8.148438 Z M 33.28125 14.496094 C 33.085938 14.496094 32.917969 14.34375 32.917969 14.136719 C 32.917969 13.929688 33.074219 13.777344 33.28125 13.777344 C 33.484375 13.777344 33.640625 13.929688 33.640625 14.136719 C 33.640625 14.34375 33.472656 14.496094 33.28125 14.496094 Z M 52.515625 17.148438 C 52.023438 15.824219 50.738281 14.871094 49.242188 14.855469 L 40.027344 14.070312 L 49.242188 13.402344 C 50.738281 13.390625 52.023438 12.449219 52.515625 11.109375 C 54.175781 12.554688 58.410156 13.390625 59.722656 13.402344 C 59.839844 13.503906 59.96875 13.59375 60.109375 13.671875 L 52.992188 13.671875 C 52.746094 13.671875 52.539062 13.878906 52.539062 14.125 C 52.539062 14.367188 52.746094 14.574219 52.992188 14.574219 L 60.109375 14.574219 C 59.980469 14.652344 59.851562 14.753906 59.722656 14.84375 C 58.398438 14.871094 54.175781 15.707031 52.515625 17.148438 Z M 66.160156 20.070312 C 65.96875 20.070312 65.800781 19.917969 65.800781 19.710938 C 65.800781 19.542969 65.917969 19.402344 66.082031 19.363281 C 66.109375 19.375 66.148438 19.375 66.1875 19.375 C 66.226562 19.375 66.1875 19.375 66.1875 19.375 L 66.25 19.375 C 66.40625 19.414062 66.519531 19.554688 66.519531 19.722656 C 66.507812 19.917969 66.355469 20.070312 66.160156 20.070312 Z M 66.25 17.058594 C 65.789062 15.964844 64.9375 15.089844 63.871094 14.585938 L 66.496094 14.585938 C 66.742188 14.585938 66.945312 14.382812 66.945312 14.136719 C 66.945312 13.890625 66.742188 13.6875 66.496094 13.6875 L 63.871094 13.6875 C 64.9375 13.183594 65.789062 12.296875 66.25 11.214844 C 66.960938 12.488281 68.296875 13.582031 69.703125 14.136719 C 68.296875 14.703125 66.960938 15.785156 66.25 17.058594 Z M 74.953125 28.132812 C 74.761719 28.132812 74.59375 27.976562 74.59375 27.769531 C 74.59375 27.578125 74.75 27.410156 74.953125 27.410156 C 75.148438 27.410156 75.316406 27.5625 75.316406 27.769531 C 75.300781 27.964844 75.148438 28.132812 74.953125 28.132812 Z M 74.96875 22.980469 C 74.96875 23.007812 74.953125 23.046875 74.953125 23.070312 C 74.953125 23.046875 74.941406 23.007812 74.941406 22.980469 C 74.722656 21.898438 74.464844 21.035156 74.15625 20.40625 C 74.425781 19.789062 74.582031 18.953125 74.582031 17.921875 C 74.695312 17.984375 74.8125 18.023438 74.953125 18.023438 C 75.082031 18.023438 75.210938 17.984375 75.328125 17.921875 C 75.339844 18.953125 75.480469 19.773438 75.753906 20.40625 C 75.445312 21.035156 75.1875 21.898438 74.96875 22.980469 Z M 77.414062 14.613281 L 74.953125 17.046875 L 72.496094 14.613281 C 72.25 14.367188 72.109375 14.035156 72.109375 13.6875 C 72.109375 13.339844 72.25 13.003906 72.496094 12.757812 C 72.738281 12.515625 73.074219 12.371094 73.433594 12.371094 C 73.769531 12.371094 74.089844 12.5 74.335938 12.71875 L 74.65625 13.003906 C 74.824219 13.15625 75.097656 13.15625 75.261719 13.003906 L 75.585938 12.71875 C 75.828125 12.5 76.152344 12.371094 76.484375 12.371094 C 76.832031 12.371094 77.167969 12.515625 77.425781 12.757812 C 77.671875 13.003906 77.8125 13.339844 77.8125 13.6875 C 77.8125 14.035156 77.65625 14.367188 77.414062 14.613281 Z M 83.835938 20.070312 C 83.644531 20.070312 83.476562 19.917969 83.476562 19.710938 C 83.476562 19.503906 83.632812 19.351562 83.835938 19.351562 C 84.042969 19.351562 84.199219 19.503906 84.199219 19.710938 C 84.199219 19.917969 84.03125 20.070312 83.835938 20.070312 Z M 83.734375 17.007812 C 83.027344 15.734375 81.6875 14.636719 80.285156 14.085938 C 81.6875 13.519531 83.027344 12.4375 83.734375 11.164062 C 84.199219 12.257812 85.046875 13.132812 86.117188 13.632812 L 83.488281 13.632812 C 83.246094 13.632812 83.039062 13.839844 83.039062 14.085938 C 83.039062 14.328125 83.246094 14.535156 83.488281 14.535156 L 86.117188 14.535156 C 85.046875 15.039062 84.199219 15.925781 83.734375 17.007812 Z M 100.753906 14.804688 C 99.261719 14.820312 97.972656 15.757812 97.484375 17.097656 C 95.824219 15.65625 91.589844 14.820312 90.273438 14.804688 C 90.160156 14.703125 90.03125 14.613281 89.886719 14.535156 L 97.007812 14.535156 C 97.253906 14.535156 97.457031 14.328125 97.457031 14.085938 C 97.457031 13.839844 97.253906 13.632812 97.007812 13.632812 L 89.886719 13.632812 C 90.015625 13.558594 90.144531 13.453125 90.273438 13.363281 C 91.589844 13.363281 95.824219 12.527344 97.484375 11.070312 C 97.972656 12.398438 99.261719 13.351562 100.753906 13.363281 L 109.972656 14.148438 Z M 116.71875 14.445312 C 116.527344 14.445312 116.359375 14.289062 116.359375 14.085938 C 116.359375 13.878906 116.511719 13.722656 116.71875 13.722656 C 116.925781 13.722656 117.078125 13.878906 117.078125 14.085938 C 117.078125 14.289062 116.910156 14.445312 116.71875 14.445312 Z M 116.71875 14.445312 " fill-opacity="1" fill-rule="nonzero"/></g></svg>