<svg xmlns="http://www.w3.org/2000/svg" xmlns:xlink="http://www.w3.org/1999/xlink" width="200" zoomAndPan="magnify" viewBox="0 0 150 30.000001" height="40" preserveAspectRatio="xMidYMid meet" version="1.0"><defs><clipPath id="3c43c8945b"><path d="M 2.417969 5.714844 L 147.578125 5.714844 L 147.578125 23 L 2.417969 23 Z M 2.417969 5.714844 " clip-rule="nonzero"/></clipPath></defs><g clip-path="url(#3c43c8945b)"><path fill="#ffe9c7" d="M 69.179688 20.238281 C 69.242188 20.777344 68.996094 21.191406 68.875 21.386719 C 68.179688 22.519531 66.738281 22.796875 66.382812 22.867188 C 64.078125 23.3125 62.007812 22.074219 60.519531 21.179688 C 59.402344 20.507812 59.785156 20.554688 57.527344 19.007812 C 55.527344 17.636719 54.273438 16.945312 52.773438 16.890625 C 52.542969 16.882812 51.222656 16.835938 50.972656 17.417969 C 50.894531 17.625 50.886719 17.832031 50.949219 18.046875 C 51.402344 19.609375 53.710938 18.085938 53.710938 18.085938 C 53.503906 19.898438 52.023438 20.351562 50.664062 19.984375 C 49.304688 19.613281 48.109375 17.058594 50.664062 15.617188 C 53.214844 14.171875 56.964844 16.234375 58.242188 17.386719 C 59.519531 18.539062 62.238281 20.890625 63.765625 21.21875 C 65.289062 21.546875 67.347656 21.425781 67.511719 20.476562 C 67.679688 19.53125 66.03125 19.28125 66.03125 19.28125 C 66.722656 18.722656 67.625 18.605469 68.296875 18.980469 C 68.359375 19.015625 69.082031 19.433594 69.179688 20.238281 Z M 65.46875 18.53125 C 65.46875 18.53125 63.074219 16.699219 64.511719 15.886719 C 65.949219 15.070312 66.289062 18.070312 66.289062 18.070312 C 67.144531 16.242188 65.550781 13.429688 63.710938 14.46875 C 61.871094 15.511719 63.460938 18.324219 65.46875 18.53125 Z M 65.011719 17.125 C 64.925781 17.21875 64.886719 17.328125 64.890625 17.457031 C 64.894531 17.582031 64.945312 17.691406 65.039062 17.777344 C 65.128906 17.863281 65.242188 17.902344 65.367188 17.898438 C 65.496094 17.894531 65.601562 17.847656 65.6875 17.753906 C 65.773438 17.660156 65.816406 17.550781 65.8125 17.421875 C 65.804688 17.296875 65.757812 17.1875 65.664062 17.101562 C 65.570312 17.015625 65.460938 16.972656 65.332031 16.980469 C 65.207031 16.984375 65.101562 17.03125 65.011719 17.125 Z M 69.046875 15.390625 C 70.597656 15.96875 68.515625 18.152344 68.515625 18.152344 C 70.464844 17.632812 71.597656 14.605469 69.617188 13.867188 C 67.636719 13.125 66.503906 16.152344 67.636719 17.824219 C 67.636719 17.824219 67.5 14.8125 69.046875 15.390625 Z M 68.417969 16.574219 C 68.292969 16.566406 68.183594 16.605469 68.089844 16.691406 C 67.992188 16.777344 67.945312 16.882812 67.9375 17.007812 C 67.929688 17.136719 67.96875 17.246094 68.054688 17.339844 C 68.140625 17.433594 68.246094 17.484375 68.375 17.492188 C 68.5 17.5 68.609375 17.460938 68.707031 17.375 C 68.800781 17.289062 68.851562 17.183594 68.855469 17.054688 C 68.863281 16.929688 68.824219 16.816406 68.738281 16.722656 C 68.652344 16.628906 68.546875 16.578125 68.417969 16.574219 Z M 69.570312 19.03125 C 69.570312 19.03125 71.789062 16.988281 72.34375 18.546875 C 72.894531 20.105469 69.882812 19.914062 69.882812 19.914062 C 71.535156 21.078125 74.582031 20 73.875 18.003906 C 73.167969 16.007812 70.121094 17.089844 69.570312 19.03125 Z M 70.945312 19.472656 C 71.046875 19.394531 71.105469 19.292969 71.121094 19.167969 C 71.140625 19.042969 71.109375 18.929688 71.03125 18.828125 C 70.957031 18.726562 70.855469 18.664062 70.730469 18.648438 C 70.601562 18.632812 70.488281 18.660156 70.386719 18.738281 C 70.285156 18.8125 70.226562 18.914062 70.210938 19.042969 C 70.191406 19.167969 70.222656 19.28125 70.296875 19.382812 C 70.375 19.484375 70.476562 19.542969 70.601562 19.5625 C 70.730469 19.578125 70.84375 19.546875 70.945312 19.472656 Z M 99.410156 15.613281 C 96.859375 14.171875 93.105469 16.234375 91.828125 17.386719 C 90.550781 18.539062 87.832031 20.890625 86.308594 21.21875 C 84.785156 21.546875 82.726562 21.425781 82.558594 20.476562 C 82.394531 19.527344 84.042969 19.28125 84.042969 19.28125 C 83.351562 18.722656 82.449219 18.605469 81.777344 18.980469 C 81.710938 19.015625 80.988281 19.433594 80.890625 20.238281 C 80.828125 20.777344 81.078125 21.191406 81.195312 21.386719 C 81.890625 22.519531 83.332031 22.796875 83.6875 22.867188 C 85.992188 23.3125 88.0625 22.074219 89.550781 21.179688 C 90.667969 20.507812 90.289062 20.554688 92.542969 19.007812 C 94.546875 17.636719 95.796875 16.945312 97.296875 16.890625 C 97.527344 16.882812 98.847656 16.835938 99.097656 17.417969 C 99.175781 17.625 99.183594 17.832031 99.121094 18.046875 C 98.667969 19.609375 96.363281 18.085938 96.363281 18.085938 C 96.566406 19.898438 98.050781 20.351562 99.410156 19.984375 C 100.769531 19.613281 101.964844 17.058594 99.410156 15.613281 Z M 85.558594 15.886719 C 86.996094 16.699219 84.601562 18.535156 84.601562 18.535156 C 86.609375 18.324219 88.203125 15.511719 86.359375 14.472656 C 84.519531 13.433594 82.925781 16.246094 83.785156 18.074219 C 83.785156 18.070312 84.121094 15.070312 85.558594 15.886719 Z M 85.058594 17.128906 C 84.972656 17.035156 84.863281 16.984375 84.738281 16.980469 C 84.609375 16.976562 84.5 17.015625 84.40625 17.101562 C 84.3125 17.191406 84.265625 17.296875 84.261719 17.421875 C 84.253906 17.550781 84.296875 17.660156 84.382812 17.753906 C 84.46875 17.847656 84.574219 17.894531 84.703125 17.902344 C 84.832031 17.90625 84.941406 17.863281 85.035156 17.777344 C 85.128906 17.691406 85.175781 17.585938 85.179688 17.457031 C 85.1875 17.328125 85.144531 17.21875 85.058594 17.125 Z M 81.554688 18.15625 C 81.554688 18.15625 79.476562 15.96875 81.023438 15.394531 C 82.570312 14.816406 82.433594 17.828125 82.433594 17.828125 C 83.566406 16.15625 82.433594 13.128906 80.453125 13.871094 C 78.472656 14.613281 79.605469 17.636719 81.554688 18.15625 Z M 81.214844 17.058594 C 81.222656 17.183594 81.269531 17.289062 81.367188 17.375 C 81.460938 17.460938 81.570312 17.5 81.699219 17.492188 C 81.824219 17.488281 81.929688 17.4375 82.015625 17.34375 C 82.101562 17.25 82.140625 17.136719 82.132812 17.011719 C 82.128906 16.882812 82.078125 16.777344 81.984375 16.691406 C 81.890625 16.609375 81.777344 16.566406 81.652344 16.574219 C 81.523438 16.582031 81.417969 16.628906 81.332031 16.726562 C 81.25 16.820312 81.207031 16.929688 81.214844 17.054688 Z M 76.195312 18.007812 C 75.492188 20 78.535156 21.078125 80.1875 19.917969 C 80.1875 19.917969 77.175781 20.105469 77.730469 18.550781 C 78.28125 16.992188 80.5 19.03125 80.5 19.03125 C 79.949219 17.089844 76.902344 16.011719 76.195312 18.003906 Z M 79.039062 18.828125 C 78.960938 18.929688 78.933594 19.042969 78.949219 19.167969 C 78.96875 19.296875 79.027344 19.394531 79.128906 19.472656 C 79.230469 19.550781 79.34375 19.578125 79.46875 19.5625 C 79.59375 19.542969 79.695312 19.484375 79.773438 19.382812 C 79.847656 19.28125 79.878906 19.167969 79.863281 19.042969 C 79.84375 18.917969 79.785156 18.816406 79.683594 18.738281 C 79.582031 18.660156 79.46875 18.632812 79.34375 18.648438 C 79.214844 18.667969 79.113281 18.726562 79.039062 18.828125 Z M 47.269531 16.855469 L 5.496094 17.636719 C 5.328125 17.644531 5.242188 17.734375 5.242188 17.902344 C 5.242188 18.070312 5.328125 18.15625 5.496094 18.164062 L 47.269531 18.949219 L 47.308594 18.949219 C 47.445312 18.945312 47.578125 18.917969 47.707031 18.859375 C 47.835938 18.804688 47.945312 18.726562 48.042969 18.628906 C 48.136719 18.527344 48.210938 18.414062 48.261719 18.285156 C 48.3125 18.15625 48.335938 18.019531 48.335938 17.882812 C 48.332031 17.742188 48.304688 17.609375 48.246094 17.484375 C 48.191406 17.355469 48.113281 17.242188 48.015625 17.148438 C 47.914062 17.050781 47.800781 16.976562 47.671875 16.925781 C 47.542969 16.875 47.40625 16.851562 47.269531 16.855469 Z M 3.644531 16.972656 C 3.386719 16.972656 3.167969 17.0625 2.988281 17.242188 C 2.804688 17.425781 2.714844 17.644531 2.714844 17.902344 C 2.714844 18.15625 2.804688 18.375 2.988281 18.558594 C 3.167969 18.738281 3.386719 18.828125 3.644531 18.828125 C 3.902344 18.828125 4.121094 18.738281 4.300781 18.558594 C 4.484375 18.375 4.574219 18.15625 4.574219 17.898438 C 4.574219 17.644531 4.480469 17.425781 4.300781 17.242188 C 4.121094 17.0625 3.902344 16.972656 3.644531 16.972656 Z M 144.574219 17.636719 L 102.804688 16.851562 L 102.761719 16.851562 C 102.625 16.855469 102.492188 16.886719 102.363281 16.941406 C 102.238281 16.996094 102.125 17.074219 102.03125 17.175781 C 101.933594 17.273438 101.859375 17.390625 101.808594 17.519531 C 101.757812 17.648438 101.734375 17.78125 101.738281 17.917969 C 101.742188 18.058594 101.769531 18.191406 101.824219 18.316406 C 101.878906 18.445312 101.957031 18.558594 102.058594 18.652344 C 102.15625 18.75 102.273438 18.824219 102.402344 18.875 C 102.53125 18.925781 102.664062 18.949219 102.804688 18.945312 L 144.574219 18.164062 C 144.746094 18.15625 144.828125 18.070312 144.828125 17.898438 C 144.828125 17.730469 144.746094 17.644531 144.574219 17.636719 Z M 146.425781 16.972656 C 146.171875 16.972656 145.953125 17.0625 145.769531 17.242188 C 145.589844 17.425781 145.496094 17.644531 145.496094 17.902344 C 145.496094 18.15625 145.589844 18.375 145.769531 18.558594 C 145.953125 18.738281 146.171875 18.828125 146.425781 18.828125 C 146.683594 18.828125 146.902344 18.738281 147.082031 18.558594 C 147.265625 18.375 147.355469 18.15625 147.355469 17.898438 C 147.355469 17.644531 147.265625 17.425781 147.082031 17.242188 C 146.902344 17.0625 146.683594 16.972656 146.425781 16.972656 Z M 75.035156 5.714844 C 72.589844 9.152344 75.035156 12.695312 75.035156 12.695312 C 75.035156 12.695312 77.480469 9.152344 75.035156 5.714844 Z M 75.035156 17.496094 C 75.035156 17.496094 76.332031 15.609375 75.035156 13.785156 C 73.738281 15.609375 75.035156 17.492188 75.035156 17.492188 Z M 73.496094 14.238281 C 73.496094 14.238281 73.519531 9.929688 69.5625 8.46875 C 69.480469 12.6875 73.496094 14.238281 73.496094 14.238281 Z M 80.507812 8.46875 C 76.550781 9.929688 76.574219 14.238281 76.574219 14.238281 C 76.574219 14.238281 80.59375 12.6875 80.507812 8.46875 Z M 80.507812 8.46875 " fill-opacity="1" fill-rule="nonzero"/></g></svg>