<svg xmlns="http://www.w3.org/2000/svg" xmlns:xlink="http://www.w3.org/1999/xlink" width="200" zoomAndPan="magnify" viewBox="0 0 150 30.000001" height="40" preserveAspectRatio="xMidYMid meet" version="1.0"><defs><clipPath id="dee26102c2"><path d="M 3.71875 4.234375 L 147.429688 4.234375 L 147.429688 24 L 3.71875 24 Z M 3.71875 4.234375 " clip-rule="nonzero"/></clipPath></defs><g clip-path="url(#dee26102c2)"><path fill="#ffe9c7" d="M 49.023438 18.578125 C 49.023438 18.722656 49 18.863281 48.945312 19 C 48.894531 19.136719 48.816406 19.257812 48.714844 19.363281 C 48.613281 19.46875 48.496094 19.550781 48.363281 19.605469 C 48.226562 19.664062 48.089844 19.695312 47.941406 19.699219 L 47.902344 19.699219 L 3.984375 18.875 C 3.910156 18.871094 3.847656 18.84375 3.796875 18.789062 C 3.746094 18.738281 3.71875 18.671875 3.71875 18.597656 C 3.71875 18.523438 3.746094 18.460938 3.796875 18.40625 C 3.847656 18.351562 3.910156 18.324219 3.984375 18.320312 L 47.902344 17.5 C 48.046875 17.496094 48.1875 17.519531 48.324219 17.574219 C 48.460938 17.628906 48.582031 17.703125 48.683594 17.804688 C 48.789062 17.90625 48.871094 18.023438 48.929688 18.160156 C 48.988281 18.292969 49.019531 18.433594 49.023438 18.578125 Z M 51.371094 17.328125 C 51.199219 17.328125 51.039062 17.359375 50.882812 17.425781 C 50.726562 17.488281 50.589844 17.582031 50.46875 17.699219 C 50.351562 17.820312 50.257812 17.957031 50.195312 18.113281 C 50.128906 18.269531 50.097656 18.429688 50.097656 18.597656 C 50.097656 18.765625 50.128906 18.929688 50.195312 19.085938 C 50.257812 19.242188 50.351562 19.378906 50.46875 19.496094 C 50.589844 19.617188 50.726562 19.707031 50.882812 19.773438 C 51.039062 19.835938 51.199219 19.871094 51.371094 19.871094 C 51.539062 19.871094 51.699219 19.835938 51.855469 19.773438 C 52.011719 19.707031 52.148438 19.617188 52.269531 19.496094 C 52.386719 19.378906 52.480469 19.242188 52.542969 19.085938 C 52.609375 18.929688 52.640625 18.765625 52.640625 18.597656 C 52.640625 18.429688 52.609375 18.269531 52.542969 18.113281 C 52.480469 17.957031 52.386719 17.820312 52.269531 17.699219 C 52.148438 17.578125 52.011719 17.488281 51.855469 17.421875 C 51.699219 17.359375 51.535156 17.328125 51.367188 17.328125 Z M 147.308594 18.320312 L 103.390625 17.5 L 103.351562 17.5 C 103.203125 17.5 103.066406 17.53125 102.929688 17.589844 C 102.796875 17.648438 102.679688 17.730469 102.578125 17.835938 C 102.476562 17.941406 102.398438 18.0625 102.347656 18.195312 C 102.292969 18.332031 102.269531 18.472656 102.269531 18.621094 C 102.273438 18.765625 102.304688 18.90625 102.363281 19.039062 C 102.421875 19.171875 102.503906 19.289062 102.609375 19.390625 C 102.714844 19.492188 102.832031 19.570312 102.96875 19.625 C 103.105469 19.675781 103.246094 19.703125 103.390625 19.699219 L 147.308594 18.875 C 147.382812 18.871094 147.445312 18.84375 147.496094 18.789062 C 147.550781 18.738281 147.574219 18.671875 147.574219 18.597656 C 147.574219 18.523438 147.550781 18.460938 147.496094 18.40625 C 147.445312 18.351562 147.382812 18.324219 147.308594 18.320312 Z M 99.921875 17.328125 C 99.753906 17.328125 99.59375 17.359375 99.4375 17.425781 C 99.28125 17.488281 99.144531 17.582031 99.023438 17.699219 C 98.90625 17.820312 98.8125 17.957031 98.75 18.113281 C 98.683594 18.269531 98.652344 18.429688 98.652344 18.597656 C 98.652344 18.765625 98.683594 18.929688 98.75 19.085938 C 98.8125 19.242188 98.90625 19.378906 99.023438 19.496094 C 99.144531 19.617188 99.28125 19.707031 99.4375 19.773438 C 99.59375 19.835938 99.753906 19.871094 99.921875 19.871094 C 100.09375 19.871094 100.253906 19.835938 100.410156 19.773438 C 100.566406 19.707031 100.703125 19.617188 100.824219 19.496094 C 100.941406 19.378906 101.035156 19.242188 101.097656 19.085938 C 101.164062 18.929688 101.195312 18.765625 101.195312 18.597656 C 101.195312 18.429688 101.164062 18.269531 101.097656 18.113281 C 101.035156 17.957031 100.941406 17.820312 100.824219 17.699219 C 100.703125 17.578125 100.566406 17.488281 100.410156 17.421875 C 100.253906 17.359375 100.089844 17.328125 99.921875 17.328125 Z M 96.433594 15.136719 C 95.167969 14.789062 93.785156 15.210938 93.59375 16.898438 C 93.59375 16.898438 95.742188 15.480469 96.164062 16.9375 C 96.222656 17.136719 96.214844 17.332031 96.140625 17.523438 C 95.910156 18.066406 94.679688 18.019531 94.464844 18.011719 C 93.070312 17.960938 91.902344 17.320312 90.039062 16.042969 C 87.9375 14.605469 88.292969 14.644531 87.253906 14.023438 C 85.867188 13.191406 83.941406 12.035156 81.792969 12.449219 C 81.460938 12.515625 80.121094 12.773438 79.476562 13.828125 C 79.363281 14.007812 79.132812 14.398438 79.191406 14.894531 C 79.28125 15.644531 79.957031 16.035156 80.015625 16.070312 C 80.640625 16.417969 81.480469 16.308594 82.125 15.789062 C 82.125 15.789062 80.589844 15.558594 80.746094 14.675781 C 80.898438 13.792969 82.816406 13.679688 84.234375 13.984375 C 85.652344 14.292969 88.183594 16.476562 89.375 17.550781 C 90.566406 18.625 94.054688 20.542969 96.433594 19.203125 C 98.8125 17.859375 97.695312 15.480469 96.429688 15.136719 Z M 85.457031 17.375 C 84.152344 16.148438 81.300781 16.503906 80.917969 18.398438 C 80.535156 20.289062 82.53125 21.414062 83.527344 20.214844 C 83.527344 20.214844 82.222656 19.90625 82.199219 18.882812 C 82.171875 17.859375 84.371094 17.808594 84.730469 18.832031 C 85.089844 19.855469 84.523438 21.542969 82.554688 22.132812 C 80.585938 22.722656 78.082031 21.46875 77.644531 19.167969 C 77.210938 16.863281 77.460938 16.15625 78.054688 14.113281 C 78.054688 14.113281 75.777344 16.523438 76.367188 19.714844 C 76.996094 23.121094 80.742188 24.777344 83.695312 23.359375 C 86.648438 21.941406 86.761719 18.601562 85.457031 17.375 Z M 70.546875 14.671875 C 70.703125 15.554688 69.167969 15.785156 69.167969 15.785156 C 69.8125 16.304688 70.652344 16.417969 71.277344 16.066406 C 71.339844 16.035156 72.011719 15.644531 72.101562 14.894531 C 72.164062 14.394531 71.929688 14.007812 71.820312 13.824219 C 71.171875 12.773438 69.832031 12.511719 69.5 12.449219 C 67.355469 12.03125 65.425781 13.1875 64.042969 14.019531 C 63 14.644531 63.355469 14.601562 61.253906 16.042969 C 59.390625 17.316406 58.226562 17.960938 56.832031 18.011719 C 56.613281 18.019531 55.382812 18.0625 55.152344 17.523438 C 55.078125 17.328125 55.074219 17.132812 55.128906 16.9375 C 55.550781 15.480469 57.699219 16.898438 57.699219 16.898438 C 57.507812 15.210938 56.128906 14.789062 54.863281 15.132812 C 53.597656 15.480469 52.484375 17.855469 54.863281 19.199219 C 57.238281 20.542969 60.726562 18.625 61.914062 17.550781 C 63.105469 16.476562 65.636719 14.292969 67.054688 13.984375 C 68.476562 13.675781 70.394531 13.792969 70.546875 14.671875 Z M 73.644531 19.160156 C 73.210938 21.464844 70.703125 22.714844 68.734375 22.128906 C 66.765625 21.539062 66.203125 19.851562 66.5625 18.828125 C 66.917969 17.804688 69.117188 17.855469 69.09375 18.878906 C 69.066406 19.902344 67.761719 20.207031 67.761719 20.207031 C 68.761719 21.410156 70.753906 20.285156 70.371094 18.394531 C 69.988281 16.5 67.136719 16.144531 65.832031 17.371094 C 64.527344 18.597656 64.644531 21.933594 67.597656 23.355469 C 70.550781 24.773438 74.296875 23.117188 74.921875 19.710938 C 75.511719 16.519531 73.234375 14.109375 73.234375 14.109375 C 73.828125 16.15625 74.078125 16.863281 73.644531 19.164062 Z M 75.644531 4.246094 C 73.074219 7.859375 75.644531 11.585938 75.644531 11.585938 C 75.644531 11.585938 78.21875 7.859375 75.644531 4.246094 Z M 75.644531 16.628906 C 75.644531 16.628906 77.007812 14.648438 75.644531 12.726562 C 74.28125 14.652344 75.644531 16.632812 75.644531 16.632812 Z M 74.027344 13.203125 C 74.027344 13.203125 74.054688 8.675781 69.890625 7.140625 C 69.804688 11.578125 74.027344 13.207031 74.027344 13.207031 Z M 81.398438 7.140625 C 77.238281 8.675781 77.261719 13.203125 77.261719 13.203125 C 77.261719 13.203125 81.488281 11.578125 81.398438 7.144531 Z M 81.398438 7.140625 " fill-opacity="1" fill-rule="nonzero"/></g></svg>