<svg xmlns="http://www.w3.org/2000/svg" xmlns:xlink="http://www.w3.org/1999/xlink" width="200" zoomAndPan="magnify" viewBox="0 0 150 30.000001" height="40" preserveAspectRatio="xMidYMid meet" version="1.0"><defs><clipPath id="34a9e4623c"><path d="M 31.640625 5.023438 L 118.011719 5.023438 L 118.011719 23.894531 L 31.640625 23.894531 Z M 31.640625 5.023438 " clip-rule="nonzero"/></clipPath></defs><g clip-path="url(#34a9e4623c)"><path fill="#ffe9c7" d="M 56.898438 23.84375 C 55.5625 23.558594 54.367188 22.691406 54.015625 21.75 C 53.890625 21.414062 53.878906 20.585938 53.988281 20.1875 C 54.132812 19.675781 54.722656 18.882812 55.246094 18.496094 C 56.460938 17.605469 57.941406 17.476562 59.234375 18.15625 C 60.835938 18.996094 60.75 20.707031 59.082031 21.535156 C 57.847656 22.140625 56.558594 21.660156 56.558594 20.59375 C 56.558594 19.796875 58.007812 19.113281 58.117188 19.863281 C 58.15625 20.109375 58.027344 20.238281 57.636719 20.355469 C 57.367188 20.4375 57.304688 20.492188 57.304688 20.660156 C 57.304688 20.910156 57.519531 21.03125 57.964844 21.03125 C 58.464844 21.003906 58.875 20.796875 59.195312 20.410156 C 59.757812 19.769531 59.601562 19.265625 58.671875 18.703125 C 58.367188 18.523438 58.242188 18.503906 57.429688 18.503906 C 56.613281 18.503906 56.46875 18.527344 56.105469 18.707031 C 55.601562 18.953125 54.910156 19.625 54.699219 20.070312 C 54.347656 20.820312 54.457031 21.628906 54.984375 22.171875 C 56.226562 23.453125 58.855469 23.617188 60.972656 22.546875 C 62.746094 21.652344 64.4375 19.9375 65.546875 17.917969 C 65.675781 17.679688 65.820312 17.445312 65.976562 17.222656 C 66.078125 17.011719 66.144531 16.789062 66.167969 16.558594 C 66.566406 14.078125 69.03125 11.894531 71.027344 12.261719 C 71.980469 12.4375 72.632812 13.011719 72.699219 13.730469 C 72.742188 14.160156 72.625 14.488281 72.429688 14.488281 C 72.285156 14.488281 72.179688 14.296875 72.105469 13.902344 C 72 13.304688 71.382812 12.957031 70.4375 12.960938 C 69.855469 12.960938 69.710938 13 69.25 13.234375 C 67.785156 13.992188 66.667969 15.875 66.769531 17.457031 C 66.832031 18.546875 67.3125 19.363281 68.117188 19.734375 C 68.605469 20 69.105469 20.019531 69.613281 19.792969 C 70.5625 19.359375 70.808594 18.222656 70.144531 17.308594 C 69.859375 16.914062 69.234375 16.660156 68.878906 16.792969 C 68.519531 16.929688 68.449219 17.457031 68.707031 17.859375 C 68.882812 18.128906 69.554688 18.535156 69.832031 18.535156 C 70.136719 18.535156 70.128906 18.664062 69.808594 18.828125 C 69.035156 19.230469 67.882812 18.308594 67.882812 17.292969 C 67.882812 16.382812 68.597656 15.871094 69.535156 16.125 C 70.339844 16.339844 70.929688 17.058594 71.054688 17.96875 C 71.261719 19.4375 70.34375 20.539062 68.914062 20.535156 C 67.96875 20.535156 67.210938 20.09375 66.648438 19.230469 L 66.292969 18.679688 L 66.171875 18.890625 C 64.640625 21.230469 62.390625 23.039062 60.207031 23.675781 C 59.507812 23.878906 57.542969 23.980469 56.90625 23.84375 Z M 90.605469 23.675781 C 89.332031 23.449219 88.175781 22.953125 87.136719 22.1875 C 86.324219 21.625 84.972656 20.257812 84.316406 19.347656 C 84.027344 18.949219 83.78125 18.625 83.769531 18.625 C 83.667969 18.761719 83.574219 18.90625 83.496094 19.0625 C 82.96875 19.996094 82.167969 20.480469 81.15625 20.476562 C 80.632812 20.476562 80.464844 20.4375 80.09375 20.238281 C 79.335938 19.828125 79.011719 19.230469 79.003906 18.25 C 78.984375 17.902344 79.046875 17.570312 79.195312 17.257812 C 79.816406 15.929688 81.574219 15.566406 82.070312 16.660156 C 82.15625 16.851562 82.207031 17.050781 82.222656 17.257812 C 82.222656 17.851562 81.644531 18.597656 81.007812 18.820312 C 80.703125 18.929688 80.625 18.929688 80.367188 18.820312 C 80.007812 18.671875 79.976562 18.453125 80.316406 18.453125 C 80.679688 18.453125 81.332031 17.976562 81.472656 17.605469 C 81.613281 17.238281 81.484375 16.820312 81.183594 16.746094 C 80.398438 16.546875 79.578125 17.355469 79.578125 18.335938 C 79.566406 18.851562 79.769531 19.261719 80.1875 19.566406 C 80.453125 19.777344 80.585938 19.820312 81.0625 19.847656 C 81.738281 19.886719 82.125 19.722656 82.597656 19.195312 C 83.070312 18.667969 83.246094 18.195312 83.292969 17.398438 C 83.335938 16.929688 83.277344 16.472656 83.113281 16.03125 C 82.660156 14.5625 81.472656 13.300781 80.210938 12.945312 C 79.628906 12.777344 79.257812 12.8125 78.640625 13.09375 C 78.164062 13.3125 77.921875 13.621094 77.921875 14.007812 C 77.914062 14.144531 77.859375 14.257812 77.757812 14.355469 C 77.503906 14.582031 77.34375 14.394531 77.34375 13.867188 C 77.34375 12.75 78.523438 12.007812 79.941406 12.226562 C 80.839844 12.363281 81.496094 12.734375 82.328125 13.566406 C 82.925781 14.175781 83.105469 14.417969 83.417969 15.066406 C 83.625 15.488281 83.78125 15.925781 83.890625 16.382812 C 84.058594 17.339844 85.230469 19.132812 86.578125 20.492188 C 87.832031 21.761719 88.855469 22.414062 90.269531 22.859375 C 90.796875 23.023438 91.0625 23.054688 92.046875 23.054688 C 93.128906 23.054688 93.246094 23.035156 93.8125 22.816406 C 94.53125 22.535156 95.015625 22.183594 95.355469 21.699219 C 95.699219 21.214844 95.710938 20.507812 95.40625 19.914062 C 95.125 19.363281 94.355469 18.675781 93.785156 18.460938 C 92.417969 17.949219 90.597656 18.601562 90.597656 19.601562 C 90.597656 19.976562 91.003906 20.511719 91.457031 20.722656 C 91.863281 20.917969 92.519531 20.902344 92.707031 20.695312 C 92.894531 20.488281 92.816406 20.304688 92.414062 20.183594 C 91.980469 20.054688 91.824219 19.777344 92.046875 19.53125 C 92.238281 19.320312 92.441406 19.324219 92.882812 19.53125 C 93.324219 19.742188 93.523438 20.042969 93.515625 20.492188 C 93.496094 21.816406 91.511719 22.0625 90.316406 20.890625 C 89.773438 20.359375 89.558594 19.636719 89.765625 19.082031 C 89.902344 18.722656 90.445312 18.199219 90.933594 17.953125 C 91.449219 17.703125 91.996094 17.578125 92.570312 17.574219 C 93.144531 17.570312 93.691406 17.6875 94.214844 17.929688 C 94.992188 18.347656 95.585938 18.945312 95.992188 19.730469 C 96.226562 20.234375 96.246094 20.335938 96.210938 20.878906 C 96.164062 21.574219 95.957031 22.007812 95.394531 22.570312 C 94.902344 23.0625 93.894531 23.539062 92.992188 23.703125 C 92.117188 23.867188 91.609375 23.855469 90.597656 23.667969 Z M 43.390625 19.753906 C 41.4375 19.316406 39.707031 17.9375 38.914062 16.1875 C 38.597656 15.492188 38.339844 14.472656 38.339844 13.933594 C 38.339844 13.6875 38.308594 13.492188 38.277344 13.492188 C 38.121094 13.558594 37.976562 13.644531 37.839844 13.742188 C 37.085938 14.273438 36.25 14.519531 35.332031 14.488281 C 33.128906 14.488281 31.644531 12.90625 31.824219 10.761719 C 31.917969 9.589844 32.695312 8.414062 33.667969 7.96875 C 33.988281 7.796875 34.324219 7.738281 34.679688 7.792969 C 35.871094 7.878906 36.613281 8.589844 36.734375 9.757812 C 36.777344 10.1875 36.765625 10.261719 36.652344 10.261719 C 36.570312 10.261719 36.484375 10.132812 36.414062 9.910156 C 36.167969 9.082031 35.09375 8.40625 34.347656 8.609375 C 33.460938 8.847656 32.6875 10.164062 32.828125 11.199219 C 33.054688 12.921875 34.75 13.878906 36.472656 13.257812 C 37.5 12.886719 38.28125 12.195312 38.902344 11.140625 C 40.3125 8.6875 42.78125 7.871094 45.78125 8.851562 C 47.367188 9.367188 48.722656 10.175781 51.671875 12.34375 C 53.984375 14.050781 54.78125 14.589844 55.617188 15.007812 C 56.257812 15.332031 57.066406 15.550781 57.59375 15.554688 C 58.070312 15.554688 58.707031 15.347656 58.972656 15.101562 C 59.058594 15.007812 59.160156 14.9375 59.273438 14.890625 C 59.371094 14.890625 59.75 14.339844 59.863281 14.035156 C 60.109375 13.390625 59.851562 12.289062 59.3125 11.660156 C 58.738281 10.992188 58.265625 10.910156 57.792969 11.402344 C 57.25 11.976562 57.269531 12.605469 57.847656 13.226562 C 58.046875 13.4375 58.199219 13.648438 58.183594 13.695312 C 58.167969 13.742188 58.03125 13.792969 57.886719 13.804688 C 57.382812 13.855469 56.722656 12.980469 56.71875 12.261719 C 56.71875 11.246094 57.699219 10.226562 58.535156 10.382812 C 59.277344 10.523438 59.890625 11.066406 60.347656 11.992188 C 60.636719 12.574219 60.652344 12.65625 60.652344 13.402344 C 60.652344 14.0625 60.621094 14.25 60.460938 14.550781 C 60.359375 14.746094 60.296875 14.941406 60.324219 14.984375 C 60.511719 15.289062 62.808594 14.671875 64.234375 13.921875 C 65.027344 13.503906 65.402344 13.265625 66.816406 12.265625 C 69.152344 10.617188 70.671875 10.289062 72.367188 11.101562 C 73.042969 11.421875 73.863281 12.226562 74.144531 12.835938 C 74.886719 14.460938 74.097656 16.140625 72.605469 16.132812 C 71.808594 16.132812 70.875 15.328125 70.875 14.65625 C 70.875 14.054688 71.21875 13.953125 71.542969 14.453125 C 71.785156 14.808594 72.105469 15.054688 72.507812 15.199219 C 72.675781 15.210938 72.835938 15.183594 72.992188 15.117188 C 73.597656 14.863281 73.792969 13.847656 73.40625 13.03125 C 73.199219 12.59375 72.542969 11.96875 72.03125 11.71875 C 71.6875 11.574219 71.335938 11.472656 70.96875 11.414062 C 70.394531 11.328125 70.289062 11.335938 69.726562 11.503906 C 68.71875 11.808594 68.359375 12.019531 65.839844 13.761719 C 64.066406 14.984375 62.613281 15.484375 60.828125 15.484375 C 59.902344 15.484375 59.863281 15.484375 59.503906 15.738281 C 58.769531 16.230469 58.402344 16.34375 57.546875 16.34375 C 55.867188 16.34375 54.777344 15.804688 51.144531 13.128906 C 48.914062 11.484375 48.058594 10.917969 46.984375 10.367188 C 44.757812 9.226562 43.089844 9.027344 41.589844 9.722656 C 39.707031 10.597656 38.742188 13.003906 39.449219 15.105469 C 39.703125 15.964844 40.160156 16.695312 40.816406 17.300781 C 41.878906 18.351562 43.15625 18.902344 44.550781 18.910156 C 45.261719 18.910156 45.390625 18.890625 45.878906 18.65625 C 46.558594 18.335938 46.941406 18.003906 47.222656 17.484375 C 47.863281 16.308594 47.609375 14.886719 46.578125 13.851562 C 45.261719 12.535156 43.488281 12.597656 43.085938 13.972656 C 42.914062 14.554688 42.960938 15.816406 43.167969 16.226562 C 43.480469 16.855469 42.953125 16.683594 42.421875 15.996094 C 41.753906 15.121094 41.921875 13.425781 42.753906 12.644531 C 44.425781 11.074219 47.816406 12.601562 48.523438 15.242188 C 48.742188 16.046875 48.609375 17.144531 48.195312 17.953125 C 47.800781 18.734375 46.679688 19.554688 45.707031 19.773438 C 45.207031 19.886719 43.953125 19.875 43.386719 19.746094 Z M 104.296875 19.5 C 103.648438 19.335938 103.082031 19.023438 102.601562 18.558594 C 101.769531 17.789062 101.457031 17.058594 101.457031 15.882812 C 101.457031 14.460938 102.144531 13.269531 103.480469 12.398438 C 104.941406 11.445312 106.765625 11.570312 107.558594 12.679688 C 107.9375 13.277344 108.097656 13.933594 108.042969 14.640625 C 107.933594 15.414062 107.367188 16.308594 106.984375 16.308594 C 106.816406 16.308594 106.816406 16.324219 107.003906 15.605469 C 107.117188 15.011719 107.117188 14.417969 107.003906 13.824219 C 106.945312 13.550781 106.820312 13.308594 106.628906 13.101562 C 106.441406 12.894531 106.210938 12.746094 105.941406 12.664062 C 105.628906 12.578125 105.484375 12.582031 105.050781 12.695312 C 104.394531 12.871094 103.839844 13.207031 103.386719 13.707031 C 102.929688 14.207031 102.648438 14.792969 102.535156 15.460938 C 102.1875 17.375 104 18.992188 106.066406 18.628906 C 108.042969 18.285156 109.535156 17.199219 110.320312 15.519531 C 111.011719 14.050781 110.992188 12.667969 110.253906 11.230469 C 109.441406 9.65625 107.855469 8.84375 106.03125 9.074219 C 104.167969 9.3125 102.527344 10.191406 98.980469 12.855469 C 95.9375 15.140625 94.980469 15.714844 93.632812 16.058594 C 92.984375 16.25 92.328125 16.269531 91.667969 16.113281 C 91.199219 16.003906 90.550781 15.675781 90.367188 15.453125 C 90.289062 15.359375 90.085938 15.339844 89.378906 15.375 C 88.328125 15.417969 87.3125 15.234375 86.34375 14.824219 C 85.351562 14.425781 84.949219 14.1875 82.898438 12.789062 C 80.984375 11.476562 79.792969 11.117188 78.585938 11.46875 C 77.707031 11.730469 76.933594 12.363281 76.605469 13.101562 C 76.304688 13.757812 76.441406 14.640625 76.890625 15 C 77.304688 15.335938 78.179688 15.050781 78.476562 14.484375 C 78.644531 14.160156 78.863281 14.046875 79.054688 14.179688 C 79.273438 14.339844 79.183594 14.957031 78.886719 15.347656 C 78.066406 16.421875 76.457031 16.335938 75.871094 15.1875 C 75.691406 14.835938 75.65625 14.667969 75.65625 14.027344 C 75.65625 13.386719 75.6875 13.21875 75.894531 12.792969 C 76.277344 12.117188 76.800781 11.578125 77.464844 11.175781 C 78.699219 10.476562 80.074219 10.472656 81.515625 11.175781 C 82.152344 11.480469 82.417969 11.652344 83.777344 12.59375 C 85.035156 13.464844 86.421875 14.199219 87.335938 14.484375 C 87.65625 14.582031 88.03125 14.699219 88.167969 14.746094 C 88.46875 14.847656 89.78125 14.949219 89.78125 14.871094 C 89.742188 14.742188 89.691406 14.621094 89.628906 14.507812 C 89.519531 14.261719 89.433594 14.007812 89.378906 13.746094 C 89.128906 12.570312 89.960938 10.863281 91.015625 10.40625 C 91.53125 10.179688 91.929688 10.195312 92.382812 10.460938 C 93.417969 11.070312 93.578125 12.679688 92.6875 13.4375 C 92.363281 13.707031 92.125 13.78125 91.976562 13.65625 C 91.796875 13.503906 91.824219 13.433594 92.179688 13.097656 C 92.375 12.914062 92.515625 12.695312 92.59375 12.4375 C 92.675781 12.132812 92.664062 12.035156 92.511719 11.679688 C 92.265625 11.109375 91.886719 10.871094 91.449219 11.003906 C 91.203125 11.097656 90.996094 11.242188 90.824219 11.441406 C 89.851562 12.515625 89.847656 13.980469 90.808594 14.765625 C 91.613281 15.425781 92.175781 15.558594 93.15625 15.324219 C 94.421875 15.019531 95.066406 14.632812 98.253906 12.242188 C 100.589844 10.496094 101.445312 9.917969 102.476562 9.359375 C 105.59375 7.6875 108.382812 7.792969 110.222656 9.628906 C 110.570312 9.984375 110.875 10.371094 111.132812 10.800781 C 111.753906 11.925781 112.886719 12.792969 114.050781 13.039062 C 114.425781 13.140625 114.800781 13.140625 115.179688 13.039062 C 116.40625 12.78125 117.105469 12.03125 117.199219 10.875 C 117.265625 10.234375 117.117188 9.652344 116.753906 9.121094 C 116.359375 8.523438 115.804688 8.167969 115.339844 8.21875 C 114.949219 8.265625 114.597656 8.410156 114.289062 8.652344 C 113.980469 8.898438 113.753906 9.203125 113.617188 9.570312 C 113.554688 9.75 113.441406 9.90625 113.363281 9.921875 C 113.234375 9.949219 113.222656 9.898438 113.273438 9.480469 C 113.355469 8.566406 113.789062 7.941406 114.570312 7.601562 C 115.785156 7.074219 117.105469 7.695312 117.816406 9.144531 C 118.296875 10.117188 118.359375 10.886719 118.042969 11.875 C 117.328125 14.105469 114.324219 14.882812 112.164062 13.394531 C 112.042969 13.304688 111.914062 13.226562 111.78125 13.15625 C 111.730469 13.367188 111.703125 13.582031 111.695312 13.796875 C 111.566406 15.199219 111.03125 16.425781 110.085938 17.46875 C 109.253906 18.394531 108.238281 19.035156 107.042969 19.386719 C 106.371094 19.601562 104.882812 19.664062 104.292969 19.496094 Z M 61.808594 19.464844 C 61.136719 19.292969 60.785156 18.773438 61.011719 18.300781 C 61.171875 17.96875 61.359375 17.84375 62.074219 17.585938 C 63.03125 17.238281 63.898438 16.796875 64.160156 16.519531 C 64.421875 16.246094 64.761719 15.675781 64.761719 15.507812 C 64.761719 15.375 65.050781 15.289062 65.269531 15.355469 C 65.433594 15.410156 65.441406 15.445312 65.386719 16.085938 C 65.285156 17.234375 64.824219 18.277344 64.171875 18.835938 C 63.5625 19.347656 62.488281 19.632812 61.816406 19.460938 Z M 87.289062 19.375 C 86.53125 19.265625 85.546875 18.53125 85.179688 17.800781 C 84.773438 16.992188 84.496094 15.457031 84.726562 15.304688 C 84.953125 15.15625 85.214844 15.222656 85.300781 15.457031 C 85.421875 15.824219 85.613281 16.148438 85.875 16.429688 C 86.125 16.667969 87.242188 17.226562 87.863281 17.425781 C 88.535156 17.640625 88.910156 17.871094 89.070312 18.167969 C 89.460938 18.894531 88.492188 19.546875 87.285156 19.375 Z M 74.382812 18.078125 C 74.132812 17.722656 73.945312 17.367188 73.945312 17.246094 C 73.945312 17.054688 74.03125 16.886719 74.570312 16.03125 C 74.789062 15.683594 75.191406 15.621094 75.394531 15.902344 C 75.671875 16.285156 75.917969 16.6875 76.132812 17.109375 C 76.1875 17.273438 76.046875 17.550781 75.570312 18.242188 C 75.117188 18.902344 74.945312 18.882812 74.382812 18.070312 Z M 36.597656 17.285156 C 36.324219 17.207031 36.101562 17.054688 35.933594 16.828125 C 35.761719 16.597656 35.679688 16.34375 35.6875 16.058594 C 35.6875 15.441406 36.058594 14.976562 36.6875 14.808594 C 37.039062 14.714844 37.105469 14.722656 37.476562 14.90625 C 37.710938 15.015625 37.898438 15.179688 38.039062 15.394531 C 38.179688 15.613281 38.25 15.851562 38.253906 16.109375 C 38.253906 16.902344 37.40625 17.503906 36.597656 17.285156 Z M 112.828125 16.980469 C 111.625 16.699219 111.453125 15.15625 112.558594 14.589844 C 112.65625 14.542969 112.757812 14.503906 112.863281 14.480469 C 112.96875 14.460938 113.078125 14.449219 113.183594 14.453125 C 113.292969 14.457031 113.398438 14.476562 113.503906 14.507812 C 113.609375 14.539062 113.707031 14.585938 113.796875 14.640625 C 113.890625 14.699219 113.972656 14.765625 114.046875 14.847656 C 114.125 14.925781 114.1875 15.011719 114.238281 15.105469 C 114.292969 15.203125 114.332031 15.300781 114.359375 15.40625 C 114.382812 15.511719 114.398438 15.621094 114.394531 15.730469 C 114.402344 16.246094 114.011719 16.808594 113.550781 16.933594 C 113.175781 17.039062 113.097656 17.042969 112.828125 16.980469 Z M 54.683594 12.890625 C 54.515625 12.675781 54.363281 12.453125 54.230469 12.214844 C 53.8125 11.503906 52.824219 10.492188 52.050781 9.984375 C 51.074219 9.34375 49.824219 8.828125 48.1875 8.398438 C 46.746094 8.019531 45.996094 7.605469 45.699219 7.019531 C 45.296875 6.234375 45.828125 5.621094 46.914062 5.621094 C 48.140625 5.621094 49.691406 6.308594 51.46875 7.648438 C 53.015625 8.808594 54.230469 10.226562 54.960938 11.703125 C 55.359375 12.515625 55.417969 12.859375 55.164062 12.992188 C 54.910156 13.125 54.875 13.101562 54.691406 12.890625 Z M 94.828125 12.761719 C 94.65625 12.621094 94.652344 12.589844 94.75 12.285156 C 95.398438 10.285156 97.691406 7.746094 100.09375 6.371094 C 102.117188 5.210938 103.878906 5.046875 104.335938 5.984375 C 104.511719 6.339844 104.382812 6.761719 103.96875 7.175781 C 103.550781 7.589844 103.136719 7.792969 102.074219 8.085938 C 98.632812 9.042969 96.933594 10.125 95.761719 12.113281 C 95.433594 12.667969 95.210938 12.917969 95.050781 12.917969 C 94.96875 12.878906 94.894531 12.828125 94.824219 12.765625 Z M 74.585938 11.394531 C 74.523438 11.242188 74.375 10.863281 74.257812 10.542969 C 74.105469 10.160156 73.925781 9.789062 73.722656 9.433594 C 73.113281 8.371094 71.71875 7.199219 70.550781 6.742188 C 68.859375 6.078125 66.96875 6.371094 66.449219 7.378906 C 65.984375 8.273438 67.136719 9.59375 68.207031 9.394531 C 68.402344 9.347656 68.578125 9.257812 68.734375 9.132812 C 68.925781 9.003906 69.011719 8.824219 68.984375 8.589844 C 68.984375 8.300781 69.003906 8.265625 69.164062 8.289062 C 69.457031 8.332031 69.6875 8.726562 69.6875 9.183594 C 69.6875 9.53125 69.648438 9.628906 69.402344 9.882812 C 68.828125 10.480469 67.910156 10.585938 66.992188 10.167969 C 66.390625 9.921875 65.953125 9.503906 65.671875 8.917969 C 65.09375 7.757812 65.484375 6.554688 66.648438 5.929688 C 67.246094 5.609375 68.222656 5.425781 69 5.484375 C 71.261719 5.660156 73.492188 7.253906 74.785156 9.617188 L 75.007812 10.027344 L 75.347656 9.40625 C 76.128906 7.980469 77.242188 6.890625 78.683594 6.136719 C 79.746094 5.59375 80.496094 5.425781 81.648438 5.484375 C 82.699219 5.535156 83.292969 5.734375 83.835938 6.210938 C 84.40625 6.714844 84.585938 7.152344 84.539062 7.933594 C 84.496094 8.714844 84.3125 9.097656 83.78125 9.582031 C 83.214844 10.101562 82.789062 10.289062 82.058594 10.332031 C 81.328125 10.375 81.015625 10.265625 80.570312 9.804688 C 80.320312 9.550781 80.285156 9.460938 80.292969 9.101562 C 80.292969 8.769531 80.34375 8.644531 80.535156 8.445312 C 80.851562 8.117188 80.992188 8.125 80.992188 8.472656 C 80.992188 9.296875 82.101562 9.628906 82.917969 9.054688 C 83.679688 8.523438 83.855469 7.558594 83.308594 6.996094 C 82.855469 6.53125 82.320312 6.351562 81.402344 6.351562 C 80.519531 6.332031 79.6875 6.535156 78.910156 6.957031 C 77.367188 7.765625 76.246094 9.09375 75.648438 10.855469 C 75.398438 11.585938 75.328125 11.667969 74.976562 11.667969 C 74.738281 11.667969 74.671875 11.628906 74.582031 11.402344 Z M 74.585938 11.394531 " fill-opacity="1" fill-rule="nonzero"/></g></svg>